<svg id="Layer_1" data-name="Layer 1" xmlns="http://www.w3.org/2000/svg" viewBox="0 0 96 137"><defs><style>.cls-1{fill:#f7b972;}.cls-2{fill:#75bdcf;}.cls-3{fill:#9bd4de;}.cls-4{fill:#146a70;}.cls-5{fill:#fff;}</style></defs><title>東海岸部落旅行網站_首頁_191207</title><circle class="cls-1" cx="68.73" cy="26.83" r="9.88"/><path class="cls-2" d="M74.78,41.21A67.72,67.72,0,0,1,86.23,70.29a50.36,50.36,0,0,1-5,29.76,50.72,50.72,0,0,1-41.31,26.75c-8,.46-17.05-1.71-21.07-8.62-3-5.11-2.4-11.58-.49-17.17s5-10.7,7.06-16.24c4.12-11.17,3.67-23.44,3-35.33-3.1.75-15-.12-9.74-5.69,3.8-4,9.83-4.3,13.84-8,4.31-4,5.41-10.28,8.6-15.19a20.92,20.92,0,0,1,24.64-7.74c2.43,1,5,3.37,4,5.8-1.13,2.8-5.61,2.36-7.41,4.78-1.34,1.79-.54,4.57,1.24,5.94A54.68,54.68,0,0,1,74.78,41.21Z"/><path class="cls-3" d="M84.17,41.89c-.6-.13-6.73-.79-4,1.33,1.78,1.36,3.58,2.94,5.07,3.22a5.74,5.74,0,0,0,1.6.1C89.76,46.25,88.89,43,84.17,41.89Z"/><path class="cls-3" d="M18.91,62.39c.36-.49,4.57-5,3.86-1.58C22.32,63,22,65.37,21,66.56a5.71,5.71,0,0,1-1.14,1.12C17.54,69.35,16,66.29,18.91,62.39Z"/><path class="cls-4" d="M12.73,27.69a1,1,0,0,1-.46-1.87,7.8,7.8,0,0,1,3.67-1,8.19,8.19,0,0,1,5.2,1.69,1.41,1.41,0,0,0,2.11-.5,14.27,14.27,0,0,1,4.09-5.19A8.17,8.17,0,0,1,31,19.3a1.28,1.28,0,0,1,.77,2.4,17.75,17.75,0,0,0-7.92,8.6,1.25,1.25,0,0,1-1.93.49A16,16,0,0,0,12.73,27.69Z"/><circle class="cls-5" cx="43.61" cy="66.08" r="2.77" transform="translate(-22.66 109.39) rotate(-89.75)"/><circle class="cls-5" cx="66.62" cy="62.21" r="2.77" transform="translate(4.12 128.55) rotate(-89.75)"/><path class="cls-5" d="M57.33,70.21c-5.49-.25-5.21,8,.2,7.32,1.22-.15,1.24-2.08,0-1.94-2.74.31-6.61,2.62-5.49,5.95,1.27,3.77,5.77,2.87,8.55,1.75,1.14-.46.64-2.34-.52-1.87-1.32.53-3.11,1.38-4.56.9-3.59-1.19-.27-4.53,2-4.79V75.59a1.76,1.76,0,1,1-.2-3.44c1.25.06,1.24-1.88,0-1.94Z"/><path class="cls-5" d="M61.82,14.64c2.06.81,3.64,2.32,1.51,4.53-1.39,1.44-3.79-.17-4.23-1.74.89,1.51.59,3.2-.84,3.67s-2.62-.95-2.85-2.46c.12,1.43.06,2.75-1.07,3.43a2.8,2.8,0,0,1-3.53-.66A2.69,2.69,0,0,1,47,23.57c-3.56-1.94.5-5.36,2.41-6.7A16.37,16.37,0,0,1,58.31,14,10.12,10.12,0,0,1,61.82,14.64Z"/><path class="cls-5" d="M37.44,47.34a26.52,26.52,0,0,0,17.62-14c.3-.6-.6-1.12-.9-.52a25.5,25.5,0,0,1-17,13.57c-.65.16-.37,1.16.28,1Z"/><path class="cls-5" d="M26.25,44.49a22.4,22.4,0,0,0,19.51-9.07c.4-.53-.5-1.05-.9-.52a21.32,21.32,0,0,1-18.62,8.56c-.67,0-.67,1,0,1Z"/><path class="cls-5" d="M60.25,32.43a12.58,12.58,0,0,1-6,8.53.52.52,0,0,0,.52.9,13.58,13.58,0,0,0,6.45-9.15c.13-.65-.87-.93-1-.27Z"/></svg>