<svg id="Layer_1" data-name="Layer 1" xmlns="http://www.w3.org/2000/svg" viewBox="0 0 161 101"><defs><style>.cls-1{fill:#f7b972;}.cls-2{fill:#7ebc9d;}.cls-3{fill:#9bd4de;}.cls-4{fill:#babbbc;}.cls-5{fill:#679d83;}.cls-6{fill:#fff;}</style></defs><title>東海岸部落旅行網站_首頁_191207</title><rect class="cls-1" x="127.56" y="63.8" width="5.29" height="13.04" rx="2.52" ry="2.52"/><path class="cls-2" d="M62.65,34a7.18,7.18,0,0,1-11.22-5.82,37.67,37.67,0,0,1,.69-8.72,11.43,11.43,0,0,1,.67-2.17,3.92,3.92,0,0,1,5.65-1.76c1.09.64,2.15,1.35,3.23,2a2.23,2.23,0,0,0,3.46-1.29c.37-1.24.51-2.55.8-3.82a7.78,7.78,0,0,1,2.69-4.66,3.15,3.15,0,0,1,4,.11c.78.7,1.48,1.48,2.21,2.23,2.08,2.16,3.27,2,4.81-.52a21.13,21.13,0,0,1,2.67-3.66C84.09,4.05,85.48,4,87,6c2.1,2.82,6,6.66,5,10.43-1.57,6-10,5.84-14.46,8.27A160.66,160.66,0,0,0,62.65,34Z"/><path class="cls-3" d="M11.54,60.45l.07-.25c2.56-9,8-15.5,15.69-20.63,8.83-5.85,17.91-.41,27.22-.45s14.69-5.59,22-11c9.37-6.93,53.4-17.19,54.7,3.17.08,1.18,27-3.5,21.87,11.63-2.46,7.23-12,10.38-18.85,10.79-4,.24-8.23-.09-11.75,1.8-8.08,4.34.4,18-7.34,25.34A39.61,39.61,0,0,1,96.71,90.3c-16.05,3-31-6.1-47.79-1.84-5.74,1.46-11.28,3.75-17.14,4.61C10.57,96.17,6.95,76.89,11.54,60.45Z"/><path class="cls-4" d="M47,41.79c3.79-1.13,6.83-3.88,4.42-6.45a26.42,26.42,0,0,0-3.64-3.45,7.64,7.64,0,0,0-3.08-1.46c-1.33-.23-2.24.39-3.38,1a7.9,7.9,0,0,0-3.36,5.52C37.47,42.29,42.69,43.06,47,41.79Z"/><path class="cls-4" d="M32.52,39.71c3-.89,5.35-3,3.46-5.06A20.87,20.87,0,0,0,33.13,32a6,6,0,0,0-2.42-1.14,4.12,4.12,0,0,0-2.65.75,6.19,6.19,0,0,0-2.63,4.33C25.08,40.1,29.18,40.71,32.52,39.71Z"/><path class="cls-5" d="M129.91,68.53h2.34c2.34,0,4-3.6,3.47-7.31l-2.34-15h0a3.51,3.51,0,0,0-6.95,0h0l-2.34,15c-.58,3.71,1.14,7.31,3.47,7.31Z"/><rect class="cls-1" x="141.28" y="56.07" width="3.44" height="8.49" rx="1.64" ry="1.64"/><path class="cls-2" d="M142.82,59.14h1.52c1.52,0,2.64-2.35,2.26-4.76l-1.52-9.79h0a2.29,2.29,0,0,0-4.52,0h0L139,54.38c-.38,2.41.74,4.76,2.26,4.76Z"/><path class="cls-6" d="M31.53,66.9c5.18-9.22,15.82,4.92,20.91-4.63.46-.87-.86-1.64-1.32-.77-3.32,6.22-8.89.52-13.62.45a7.88,7.88,0,0,0-7.28,4.18.77.77,0,0,0,1.32.77Z"/><circle class="cls-6" cx="69.46" cy="45.19" r="2.48" transform="translate(23.97 114.45) rotate(-89.75)"/><circle class="cls-6" cx="84.08" cy="43.05" r="2.48" transform="translate(40.66 126.95) rotate(-89.75)"/><path class="cls-6" d="M77.3,74.63c2.61-1.61,5-2.67,8.05-1.37a9.09,9.09,0,0,0,2.89.86,7.51,7.51,0,0,0,6-2.45c.69-.7-.39-1.79-1.08-1.08a5.89,5.89,0,0,1-6.31,1.62c-1.26-.41-2.23-1.11-3.59-1.25-2.45-.25-4.74,1.12-6.74,2.35-.84.51-.07,1.84.77,1.32Z"/><path class="cls-6" d="M105.71,41.81c2.61-1.61,5-2.67,8.06-1.37a9,9,0,0,0,2.88.86,7.5,7.5,0,0,0,6-2.44c.69-.71-.39-1.79-1.08-1.08a5.9,5.9,0,0,1-6.31,1.62C114,39,113,38.28,111.68,38.14c-2.45-.25-4.74,1.12-6.74,2.35-.84.52-.07,1.84.77,1.32Z"/><path class="cls-6" d="M80.14,53.72a3.13,3.13,0,0,1-5.24.63c-.78-1.17-2.68-.07-1.9,1.11a5.33,5.33,0,0,0,9.26-1.16c.47-1.33-1.65-1.91-2.12-.58Z"/></svg>