<svg id="Layer_1" data-name="Layer 1" xmlns="http://www.w3.org/2000/svg" viewBox="0 0 114 88"><defs><style>.cls-1{fill:#f7b972;}.cls-2{fill:#7ebc9d;}.cls-3{fill:#fff;}.cls-4{fill:#efbebe;}.cls-5{fill:#babbbc;}.cls-6{fill:#679d83;}</style></defs><title>東海岸部落旅行網站_首頁_191207</title><circle class="cls-1" cx="43.37" cy="18.43" r="8.73"/><path class="cls-2" d="M29.05,80.35C2.25,77,9.65,34.15,16.24,17.87c2.84-7,12-12.21,17.63-4.81,1.71,2.23,3.59,8.67,5.28,10.92,2.19,2.92,5.9,3.17,8.18.42,1.79-2.16,2.88-8.78,4.52-11.07,2.36-3.3,5.28-5.91,9.4-7a7.19,7.19,0,0,1,8.21,3.71c1,2.06,2.11,8.36,3,10.5,2.47,6.12,5.05,6.83,10.33,3.11,2.68-1.89,5.2-7.85,8.24-9.12,6.6-2.75,10.38,4.39,12,9.7,4,13.5,12.81,48.07-9.85,50.48-8.39.89-16.86-1-25.23.15-8.11,1.09-16,3.8-24.17,5.09A54.45,54.45,0,0,1,29.05,80.35Z"/><path class="cls-3" d="M48.87,42.47a2.65,2.65,0,0,1-3.32,1.42,2.34,2.34,0,0,1-1.58-3,2.65,2.65,0,0,1,3.31-1.42A2.34,2.34,0,0,1,48.87,42.47Z"/><path class="cls-3" d="M69.57,44.29a2.65,2.65,0,0,1-3.32,1.42,2.34,2.34,0,0,1-1.58-3A2.65,2.65,0,0,1,68,41.25,2.34,2.34,0,0,1,69.57,44.29Z"/><circle class="cls-4" cx="12.55" cy="68.74" r="4.13"/><circle class="cls-4" cx="11.02" cy="75.66" r="3.92"/><circle class="cls-4" cx="16.84" cy="79.93" r="3.92"/><circle class="cls-4" cx="23.17" cy="78.28" r="3.92"/><circle class="cls-4" cx="24.24" cy="71.23" r="3.92"/><circle class="cls-4" cx="19.1" cy="67.25" r="4.13"/><circle class="cls-3" cx="17.87" cy="73.51" r="4.44"/><path class="cls-5" d="M89.21,80.8c3-.89,5.35-3,3.46-5.06A20.65,20.65,0,0,0,89.82,73,6,6,0,0,0,87.4,71.9a4.11,4.11,0,0,0-2.65.75A6.2,6.2,0,0,0,82.12,77C81.77,81.19,85.86,81.8,89.21,80.8Z"/><path class="cls-5" d="M79.21,79.67c3-.89,5.35-3,3.46-5.06a20.73,20.73,0,0,0-2.85-2.7,6,6,0,0,0-2.41-1.14,4.11,4.11,0,0,0-2.65.75,6.2,6.2,0,0,0-2.63,4.33C71.77,80.06,75.87,80.67,79.21,79.67Z"/><rect class="cls-1" x="92.36" y="68.96" width="5.03" height="12.39" rx="2.42" ry="2.42"/><path class="cls-6" d="M94.6,74.94h2.22c2.22,0,3.85-3.42,3.3-6.94L97.9,53.71h0a3.34,3.34,0,0,0-6.6,0h0L89.07,68c-.55,3.52,1.08,6.94,3.3,6.94Z"/><path class="cls-3" d="M58,50.82c3.42.69,1.64,5.37-.27,6.79-3,2.22-5.58-.92-5.75-3.86-.1-1.71.41-3.36,2.42-3.31.29,0,.59.06.88.1l2.92.32c1,.11,1-1.42,0-1.53-1.87-.2-4.43-1-6.12.18-2.85,1.91-1.8,7,.34,9,6.05,5.84,13.24-7.71,6-9.18C57.47,49.15,57.06,50.62,58,50.82Z"/></svg>