<svg id="Layer_1" data-name="Layer 1" xmlns="http://www.w3.org/2000/svg" viewBox="0 0 132 129"><defs><style>.cls-1{fill:#7ebc9d;}.cls-2{fill:#f7b972;}.cls-3{fill:#fff;}</style></defs><title>東海岸部落旅行網站_首頁_191207</title><path class="cls-1" d="M81.14,61.47c9.67.28,19.34.74,29,1.28a9.42,9.42,0,0,0,9.8-11,150.52,150.52,0,0,0-4.62-19.49,16.54,16.54,0,0,0-9.79-11,107.32,107.32,0,0,0-25.85-7.58,9.39,9.39,0,0,0-10.6,10.23c.94,9.7,2.1,19.38,3,29.08A9.39,9.39,0,0,0,81.14,61.47Z"/><path class="cls-2" d="M64.31,23.95a10.56,10.56,0,0,0-11.84-9.48c-7.44.94-14.86,2.1-22.29,3.17-5.68.82-10.08,2.44-10.77,8.66-.9,8.17-1.88,16.33-2.63,24.52A10.53,10.53,0,0,0,28,62.31c9.5-.69,19-1,28.55-1.11A10.55,10.55,0,0,0,67,49.65C66.15,41.08,65.14,32.52,64.31,23.95Z"/><path class="cls-1" d="M67.25,74.18s0-.06,0-.09A9.17,9.17,0,0,0,58,65.26c-11.88,0-23.75.45-35.6,1.45A9.25,9.25,0,0,0,14,76.13,84.29,84.29,0,0,0,15.2,89.7c1.22,6.79,3.73,12.89,9.45,17.11A43,43,0,0,0,33.1,112a107.22,107.22,0,0,0,21.51,6.81,9.21,9.21,0,0,0,10.86-8.08A259,259,0,0,0,67.25,74.18Z"/><path class="cls-1" d="M112.14,67.9c4.69,1.13,8.52,3.45,8.66,8.79a54.23,54.23,0,0,1-1.91,17.14c-2.8,9-9.81,15.92-18.14,20.28-7,3.67-16,7.18-24.09,5.76-8.28-1.44-6.87-11.84-5.89-17.76.94-5.67.67-11.44.68-17.16,0-7.06,1.54-14.86,8.88-17.88,5.85-2.4,12.31-1.71,18.41-.79C102.33,66.81,107.63,66.81,112.14,67.9Z"/><circle class="cls-3" cx="32.62" cy="31.86" r="2.88" transform="translate(-1.79 61.79) rotate(-85.34)"/><circle class="cls-3" cx="47.79" cy="31.28" r="2.88" transform="translate(12.7 76.36) rotate(-85.31)"/><path class="cls-3" d="M40.24,49.1H40c-2.48-.19-4.23-2.88-4-6.11a6.84,6.84,0,0,1,1.49-3.85,4.1,4.1,0,0,1,3.38-1.57A4,4,0,0,1,44,39.63a6.83,6.83,0,0,1,.88,4h0a6.83,6.83,0,0,1-1.49,3.85A4.11,4.11,0,0,1,40.24,49.1Zm.35-9.39a2,2,0,0,0-1.46.81,4.72,4.72,0,0,0-1,2.63c-.15,2,.76,3.7,2,3.79a2,2,0,0,0,1.57-.81,4.72,4.72,0,0,0,1-2.63h0a4.74,4.74,0,0,0-.57-2.75,2,2,0,0,0-1.42-1Z"/><path class="cls-3" d="M19.83,74.57a5.17,5.17,0,0,0-.15,4.65c.45,1,2,.14,1.52-.89a3.29,3.29,0,0,1,.15-2.88c.54-1-1-1.88-1.52-.89Z"/><path class="cls-3" d="M25.92,75.06l-.22,2.81c-.09,1.13,1.67,1.12,1.76,0l.22-2.81c.09-1.13-1.67-1.12-1.76,0Z"/><path class="cls-3" d="M34.07,73.33l-.29,3.75c-.09,1.13,1.67,1.12,1.76,0l.29-3.75c.09-1.13-1.67-1.12-1.76,0Z"/><path class="cls-3" d="M41.78,73.63a5,5,0,0,1,0,2.89.88.88,0,0,0,1.69.47,6.72,6.72,0,0,0,0-3.82c-.33-1.08-2-.62-1.69.47Z"/><path class="cls-3" d="M49.25,73.08l.57,4.3c.15,1.1,1.91,1.12,1.76,0L51,73.08c-.15-1.11-1.9-1.12-1.76,0Z"/><path class="cls-3" d="M58.63,72.88A7.7,7.7,0,0,1,58,76.15c-.46,1,1.06,1.92,1.52.89a9.76,9.76,0,0,0,.88-4.15.88.88,0,0,0-1.76,0Z"/><path class="cls-3" d="M20.79,86.46l-.25,3.28c-.09,1.13,1.67,1.12,1.76,0s.17-2.19.25-3.28-1.67-1.12-1.75,0Z"/><path class="cls-3" d="M26.38,87.36l-.25,3.28c-.09,1.13,1.67,1.12,1.76,0l.25-3.28c.09-1.13-1.67-1.12-1.76,0Z"/><path class="cls-3" d="M33,86.47l.32,3.31c.11,1.11,1.86,1.13,1.76,0l-.32-3.31c-.11-1.12-1.87-1.13-1.76,0Z"/><path class="cls-3" d="M41.1,86.14l-.25,3.28c-.09,1.13,1.67,1.12,1.76,0l.25-3.28c.09-1.13-1.67-1.12-1.76,0Z"/><path class="cls-3" d="M47.84,85a6,6,0,0,0,.11,3.8c.39,1.05,2.09.6,1.7-.47a4.41,4.41,0,0,1-.11-2.87A.88.88,0,0,0,47.84,85Z"/><path class="cls-3" d="M54.45,84.35q-.09,1.17-.18,2.34c-.09,1.13,1.67,1.12,1.76,0l.18-2.34c.09-1.13-1.67-1.12-1.76,0Z"/><path class="cls-3" d="M61.94,84.27a2.12,2.12,0,0,1-.78,2.42c-.89.7.36,1.93,1.24,1.24a3.82,3.82,0,0,0,1.23-4.13c-.34-1.07-2-.61-1.69.47Z"/><path class="cls-3" d="M23.21,98l.31,2.85c.12,1.11,1.88,1.12,1.76,0L25,98c-.12-1.11-1.88-1.12-1.76,0Z"/><path class="cls-3" d="M30.39,97.57q.09,1.9.18,3.79c.06,1.13,1.81,1.13,1.76,0s-.12-2.52-.18-3.79-1.81-1.13-1.76,0Z"/><path class="cls-3" d="M37.77,98.62l-.25,3.28c-.09,1.13,1.67,1.12,1.76,0l.26-3.28c.09-1.13-1.67-1.12-1.76,0Z"/><path class="cls-3" d="M45,96.82q-.14,1.88-.29,3.75c-.09,1.13,1.67,1.12,1.76,0l.29-3.75c.09-1.13-1.67-1.12-1.76,0Z"/><path class="cls-3" d="M51.94,98.08l.35,2.37c.17,1.11,1.86.64,1.7-.47l-.35-2.37c-.16-1.11-1.86-.64-1.69.47Z"/><path class="cls-3" d="M59.67,96.07l-.25,3.28c-.09,1.13,1.67,1.12,1.76,0l.26-3.28c.09-1.13-1.67-1.12-1.76,0Z"/><path class="cls-3" d="M38.5,107.12a2.91,2.91,0,0,0,0,3.25c.63.93,2.16.05,1.52-.89A1.2,1.2,0,0,1,40,108c.63-.94-.89-1.82-1.52-.89Z"/><path class="cls-3" d="M45,108.62l.29,2.38c.14,1.11,1.89,1.12,1.76,0l-.29-2.38c-.14-1.11-1.89-1.12-1.76,0Z"/><path class="cls-3" d="M52.6,108.26l.31,2.84c.12,1.11,1.88,1.12,1.75,0l-.31-2.84c-.12-1.11-1.88-1.12-1.76,0Z"/><path class="cls-3" d="M60.61,107a4.25,4.25,0,0,1-1.24,3.13c-.79.81.45,2.05,1.24,1.24A6,6,0,0,0,62.37,107a.88.88,0,0,0-1.75,0Z"/><path class="cls-3" d="M77.26,73a4.46,4.46,0,0,1,.24,2.35c-.19,1.09,1.48,1.56,1.67.46a6.2,6.2,0,0,0-.24-3.27c-.38-1-2.06-.59-1.67.46Z"/><path class="cls-3" d="M85.19,72.5l-.25,3.24c-.09,1.11,1.65,1.11,1.74,0l.25-3.24c.09-1.12-1.65-1.11-1.74,0Z"/><path class="cls-3" d="M93.53,73.15l-.25,3.25c-.09,1.12,1.65,1.11,1.74,0l.25-3.25c.09-1.11-1.65-1.11-1.74,0Z"/><path class="cls-3" d="M100.45,73.23l.28,2.81c.11,1.1,1.85,1.11,1.74,0l-.28-2.81c-.11-1.1-1.85-1.11-1.74,0Z"/><path class="cls-3" d="M106.69,71.84l-.22,2.78c-.09,1.11,1.65,1.11,1.74,0l.22-2.78c.09-1.12-1.65-1.11-1.74,0Z"/><path class="cls-3" d="M113.66,72.15a2.91,2.91,0,0,1-.47,2.12c-.61.94.9,1.81,1.5.88a4.7,4.7,0,0,0,.65-3.46c-.19-1.1-1.87-.63-1.67.46Z"/><path class="cls-3" d="M75.88,85.06a3.72,3.72,0,0,1,.22,2.35c-.26,1.09,1.41,1.55,1.67.46a5.27,5.27,0,0,0-.22-3.28c-.42-1-2.1-.57-1.67.46Z"/><path class="cls-3" d="M83.3,84q.16,1.63.32,3.27c.11,1.1,1.84,1.11,1.74,0S85.14,85.11,85,84s-1.84-1.11-1.74,0Z"/><path class="cls-3" d="M91.24,84.63q-.13,1.62-.25,3.24c-.09,1.12,1.65,1.11,1.74,0s.17-2.16.25-3.24-1.65-1.11-1.74,0Z"/><path class="cls-3" d="M97.87,83.28q-.12,1.62-.25,3.24c-.09,1.12,1.65,1.11,1.74,0l.25-3.24c.09-1.11-1.65-1.11-1.74,0Z"/><path class="cls-3" d="M103.41,84.41a8.1,8.1,0,0,1,.19,3.28c-.17,1.09,1.5,1.56,1.67.46a10.24,10.24,0,0,0-.19-4.2.87.87,0,0,0-1.67.46Z"/><path class="cls-3" d="M110,83.28l.29,2.81c.11,1.1,1.85,1.11,1.74,0l-.29-2.81c-.11-1.1-1.85-1.11-1.74,0Z"/><path class="cls-3" d="M117,83a1,1,0,0,1-.36,1.47c-1,.43-.57,2.11.46,1.67a2.78,2.78,0,0,0,1.4-4c-.59-.95-2.09-.08-1.5.88Z"/><path class="cls-3" d="M75.85,96.25,75.14,99a.87.87,0,0,0,1.67.46l.7-2.74a.87.87,0,0,0-1.67-.46Z"/><path class="cls-3" d="M80.5,96.85q-.14,1.85-.29,3.71c-.09,1.11,1.65,1.11,1.74,0l.29-3.71c.09-1.11-1.65-1.11-1.74,0Z"/><path class="cls-3" d="M88.84,97.5l-.21,2.78c-.09,1.12,1.65,1.11,1.74,0l.22-2.78c.09-1.11-1.65-1.11-1.74,0Z"/><path class="cls-3" d="M95,96.57l.31,2.81c.12,1.1,1.86,1.11,1.74,0l-.31-2.81c-.12-1.1-1.86-1.11-1.74,0Z"/><path class="cls-3" d="M102.54,95.3q-.11,1.39-.21,2.78c-.09,1.11,1.65,1.11,1.74,0q.11-1.39.22-2.78c.09-1.12-1.65-1.11-1.74,0Z"/><path class="cls-3" d="M108.83,94.79a3,3,0,0,1,.09,2.16c-.33,1.07,1.35,1.53,1.67.46a4.83,4.83,0,0,0-.27-3.5c-.46-1-2-.14-1.5.88Z"/><path class="cls-3" d="M113.91,92.91q-.12,1.62-.25,3.24c-.09,1.11,1.65,1.11,1.74,0l.25-3.24c.09-1.12-1.65-1.11-1.74,0Z"/><path class="cls-3" d="M76.08,107.48a3.62,3.62,0,0,0-.75,3.17c.24,1.09,1.92.63,1.67-.46a1.74,1.74,0,0,1,.31-1.48c.68-.87-.54-2.11-1.23-1.23Z"/><path class="cls-3" d="M81,108a3.78,3.78,0,0,0-.61,3c.21,1.1,1.88.63,1.67-.46a2.09,2.09,0,0,1,.44-1.67c.66-.91-.85-1.77-1.5-.87Z"/><path class="cls-3" d="M86.77,108.47a2,2,0,0,1,.15,1.69c-.34,1.07,1.33,1.52,1.67.46a3.75,3.75,0,0,0-.32-3c-.54-1-2-.1-1.5.88Z"/><path class="cls-3" d="M94.15,107.24,93.94,110c-.09,1.12,1.65,1.11,1.74,0q.11-1.39.21-2.78c.09-1.12-1.65-1.11-1.74,0Z"/><path class="cls-3" d="M99.53,104.62a4.48,4.48,0,0,1,.24,2.35c-.2,1.09,1.48,1.56,1.67.46a6.2,6.2,0,0,0-.24-3.27c-.38-1-2.06-.59-1.67.46Z"/><path class="cls-3" d="M106.33,106.1l.35,2.34c.16,1.1,1.84.63,1.67-.46l-.35-2.34c-.16-1.1-1.84-.63-1.67.46Z"/><path class="cls-3" d="M111.8,102.08q-.07.93-.14,1.85c-.09,1.11,1.65,1.11,1.74,0l.14-1.85c.09-1.11-1.65-1.11-1.74,0Z"/><path class="cls-3" d="M74.27,32.63l-.15,1.88c-.09,1.13,1.67,1.12,1.76,0,0-.63.1-1.25.15-1.88.09-1.13-1.67-1.12-1.76,0Z"/><path class="cls-3" d="M81.38,32.24q-.06.7-.11,1.41c-.09,1.13,1.67,1.12,1.76,0,0-.47.07-.94.11-1.41.09-1.13-1.67-1.12-1.76,0Z"/><path class="cls-3" d="M87.47,32.71l-.22,2.81c-.09,1.13,1.67,1.12,1.76,0l.22-2.81c.09-1.13-1.67-1.12-1.76,0Z"/><path class="cls-3" d="M95.45,33.33q-.09,1.17-.18,2.34c-.09,1.13,1.67,1.12,1.76,0q.09-1.17.18-2.34c.09-1.13-1.67-1.12-1.76,0Z"/><path class="cls-3" d="M101.94,34.78l-.18,2.34c-.09,1.13,1.67,1.12,1.76,0l.18-2.34c.09-1.13-1.67-1.12-1.76,0Z"/><path class="cls-3" d="M109.48,35.39a.86.86,0,0,1-.45,1c-1,.41-.59,2.11.47,1.7a2.65,2.65,0,0,0,1.5-3.61c-.44-1-2-.14-1.52.88Z"/><path class="cls-3" d="M74.45,42.55l-.18,2.34C74.18,46,75.94,46,76,44.9q.09-1.17.18-2.34c.09-1.13-1.67-1.12-1.76,0Z"/><path class="cls-3" d="M81,43.3a4.51,4.51,0,0,1,.24,2.38c-.2,1.11,1.5,1.58,1.69.47a6.27,6.27,0,0,0-.24-3.31c-.38-1.05-2.08-.6-1.69.47Z"/><path class="cls-3" d="M89.42,44.19l-.25,3.28c-.09,1.13,1.67,1.12,1.76,0s.17-2.19.25-3.28-1.67-1.12-1.76,0Z"/><path class="cls-3" d="M96.36,44.74,96.7,48c.11,1.11,1.87,1.13,1.76,0l-.34-3.31c-.11-1.12-1.87-1.13-1.76,0Z"/><path class="cls-3" d="M104,45.31q-.06.7-.11,1.41c-.09,1.13,1.67,1.12,1.76,0l.11-1.41c.09-1.13-1.67-1.12-1.76,0Z"/><path class="cls-3" d="M109.47,44.23l1.18,2.48c.49,1,2,.13,1.52-.89L111,43.35c-.48-1-2-.13-1.52.89Z"/><path class="cls-3" d="M75.19,22.75,75,25.1c-.09,1.13,1.67,1.12,1.76,0L77,22.75c.09-1.13-1.67-1.12-1.76,0Z"/><path class="cls-3" d="M81.79,23.5A4.5,4.5,0,0,1,82,25.88c-.2,1.11,1.5,1.58,1.69.47A6.28,6.28,0,0,0,83.48,23c-.38-1.05-2.08-.6-1.69.47Z"/><path class="cls-3" d="M90.16,24.39l-.25,3.28c-.09,1.13,1.67,1.12,1.76,0l.26-3.28c.09-1.13-1.67-1.12-1.76,0Z"/><path class="cls-3" d="M97.11,24.94l.34,3.31c.11,1.11,1.87,1.13,1.76,0S99,26,98.87,24.94s-1.87-1.12-1.76,0Z"/><path class="cls-3" d="M104.95,26.38c0,.47-.07.94-.11,1.41-.09,1.13,1.67,1.12,1.76,0,0-.47.07-.94.11-1.41.09-1.13-1.67-1.12-1.76,0Z"/><path class="cls-3" d="M74.6,53.18l.33,1.91c.19,1.11,1.88.64,1.69-.47l-.33-1.91c-.19-1.11-1.88-.64-1.69.47Z"/><path class="cls-3" d="M81.66,53q-.09,1.17-.18,2.35c-.09,1.13,1.67,1.12,1.76,0L83.41,53c.09-1.13-1.67-1.12-1.75,0Z"/><path class="cls-3" d="M89.58,54.81a4.5,4.5,0,0,1,.24,2.38c-.2,1.11,1.5,1.58,1.7.47a6.26,6.26,0,0,0-.25-3.31c-.38-1.05-2.08-.6-1.69.47Z"/><path class="cls-3" d="M97.15,53.75l.29,2.38c.14,1.11,1.89,1.12,1.76,0l-.29-2.38c-.14-1.11-1.89-1.12-1.76,0Z"/><path class="cls-3" d="M104.09,55.7l-.15,1.88c-.09,1.13,1.67,1.12,1.76,0q.07-.94.15-1.87c.09-1.13-1.67-1.12-1.76,0Z"/><path class="cls-3" d="M110.76,54.8l-.22,2.81c-.09,1.13,1.67,1.12,1.76,0l.22-2.81c.09-1.13-1.67-1.12-1.76,0Z"/></svg>