<?xml version="1.0" encoding="utf-8"?>
<!-- Generator: Adobe Illustrator 21.0.0, SVG Export Plug-In . SVG Version: 6.00 Build 0)  -->
<svg version="1.1" id="Layer_1" xmlns="http://www.w3.org/2000/svg" xmlns:xlink="http://www.w3.org/1999/xlink" x="0px" y="0px"
	 viewBox="0 0 430 332" style="enable-background:new 0 0 430 332;" xml:space="preserve">
<style type="text/css">
	.st0{fill:#F4AD77;}
	.st1{fill:#8BC0DA;}
	.st2{fill:#A9DAE4;}
	.st3{fill:#B4B5B5;}
	.st4{fill:#FFFFFF;}
	.st5{fill:#FCD36C;}
	.st6{fill:#94BE9E;}
	.st7{fill:#BABBBC;}
	.st8{fill:#5E957E;}
	.st9{fill:#EFBEBE;}
</style>
<title>東海岸部落旅行網站_首頁_191207</title>
<g>
	<g>
		<g>
			
				<ellipse transform="matrix(9.845208e-02 -0.9951 0.9951 9.845208e-02 162.9626 214.9007)" class="st0" cx="200.1" cy="17.5" rx="5.8" ry="5.8"/>
		</g>
		<g>
			<path class="st1" d="M202.8,26.3c3.1,5.4,4.8,11.8,5,17.7c0.2,6-1.4,12.1-4.7,17.2c-5.5,8.5-15.7,13.7-25.8,13.3
				c-4.7-0.2-9.9-2-11.9-6.3c-1.4-3.2-0.7-6.9,0.7-10.1c1.4-3.2,3.6-6,5.1-9.1c3.1-6.3,3.5-13.6,3.8-20.6c-1.9,0.3-8.8-0.9-5.4-3.9
				c2.5-2.1,6-2,8.6-3.9c2.8-2.1,3.8-5.7,5.9-8.4c3.4-4.3,10-5.7,14.9-3.1c1.4,0.7,2.7,2.3,2,3.6c-0.8,1.6-3.4,1.1-4.6,2.4
				c-0.9,1-0.6,2.7,0.4,3.6C199.2,20.9,201.2,23.5,202.8,26.3z"/>
		</g>
		<g>
			<path class="st2" d="M208.3,27.3c-0.3-0.1-3.9-0.9-2.4,0.6c1,0.9,1.9,1.9,2.8,2.2c0.4,0.1,0.7,0.2,0.9,0.2
				C211.3,30.1,211,28.2,208.3,27.3z"/>
		</g>
		<g>
			<path class="st2" d="M168.8,35.5c0.2-0.3,3-2.7,2.4-0.7c-0.4,1.3-0.7,2.6-1.3,3.3c-0.3,0.3-0.5,0.5-0.7,0.6
				C167.5,39.5,166.8,37.6,168.8,35.5z"/>
		</g>
		<g>
			<path class="st3" d="M167.1,14.8c-0.6-0.1-0.7-0.9-0.2-1.1c0.7-0.3,1.5-0.4,2.2-0.4c1.1,0.1,2.2,0.5,3,1.3c0.4,0.4,1,0.3,1.3-0.2
				c0.7-1.1,1.6-2.1,2.7-2.8c0.7-0.4,1.4-0.6,2.2-0.7c0.8,0,1.1,1.1,0.3,1.5c-2.2,0.9-4,2.5-5.2,4.6c-0.2,0.4-0.8,0.5-1.2,0.2
				C170.9,15.7,169.1,15.1,167.1,14.8z"/>
		</g>
		<g>
			
				<ellipse transform="matrix(0.1027 -0.9947 0.9947 0.1027 125.3517 217.1654)" class="st4" cx="183" cy="39.1" rx="1.6" ry="1.6"/>
		</g>
		<g>
			
				<ellipse transform="matrix(0.1028 -0.9947 0.9947 0.1028 138.587 229.9849)" class="st4" cx="196.8" cy="38.2" rx="1.6" ry="1.6"/>
		</g>
		<g>
			<g>
				<path class="st4" d="M191,42.3c-3.3-0.5-3.7,4.4-0.3,4.3c0.7,0,0.7-1.2,0-1.1c-1.7,0-4.1,1.3-3.5,3.3c0.7,2.2,3.2,1.8,4.9,1.4
					c0.7-0.2,0.4-1.3-0.3-1.1c-0.8,0.2-1.7,0.6-2.5,0.2c-0.6,0-0.7-0.4-0.5-1c-0.3-0.5-0.3-0.9,0.2-1.1c0.4-0.4,1.1-0.5,1.7-0.5
					c0-0.4,0-0.8,0-1.1c-0.7,0.1-1-0.2-0.9-0.8c-0.5-0.8-0.2-1.2,1-1.2C191.4,43.6,191.7,42.4,191,42.3L191,42.3z"/>
			</g>
		</g>
		<g>
			<path class="st4" d="M196.7,10c1.2,0.6,2,1.6,0.6,2.7c-0.9,0.8-2.2-0.3-2.4-1.3c0.4,0.9,0.2,1.9-0.7,2.1
				c-0.9,0.2-1.5-0.7-1.5-1.6c0,0.8-0.1,1.6-0.8,2c-0.7,0.3-1.6,0.1-2-0.6c-0.1,1-1.5,1.6-2.3,1.1c-2-1.3,0.6-3.1,1.8-3.8
				c1.6-0.9,3.5-1.4,5.4-1.2C195.2,9.4,196,9.6,196.7,10z"/>
		</g>
		<g>
			<g>
				<path class="st4" d="M180.5,27.7c4.7-0.7,8.6-3.3,11.2-7.2c0.2-0.3-0.3-0.6-0.5-0.3c-2.4,3.8-6.3,6.3-10.8,7
					C180,27.2,180.2,27.8,180.5,27.7L180.5,27.7z"/>
			</g>
		</g>
		<g>
			<g>
				<path class="st4" d="M174.1,25.4c4.5,0.7,8.9-0.8,12-4.1c0.3-0.3-0.2-0.7-0.4-0.4c-2.9,3.2-7.1,4.7-11.4,4
					C173.8,24.8,173.7,25.3,174.1,25.4L174.1,25.4z"/>
			</g>
		</g>
		<g>
			<g>
				<path class="st4" d="M194.8,20.3c-0.6,2.1-2.1,3.7-4,4.7c-0.4,0.2,0,0.7,0.3,0.5c2.1-1,3.6-2.8,4.3-5
					C195.5,20.1,194.9,20,194.8,20.3L194.8,20.3z"/>
			</g>
		</g>
	</g>
	<g>
		<path class="st5" d="M260.2,276.6c-21.9,6.4-38.1,1.6-60.2,6.8c-29.3,6.8-77.6,5.6-102.6-18.7C78,246,55.2,220.7,55.2,195.7
			c-0.1-29.8,6.7-53.5,8.7-83.4c0.5-6.8,1.5-13.7,5.2-19.4c6-9.2,22.6-27.3,33.6-27.8c16.3-0.7,34.3,3.8,50.9,0
			c16.8-3.8,21.6-4.9,38.8-7.8c17.9-3,39.1-15,56.3-3.8c4.6,3,8.8,6.8,13.7,9.3c5.5,2.8,13.9,13.6,19.8,15.4
			c38.6,11.7,33.6,37.7,35.9,72.6c1.4,21.5,20.2,44.1,19.2,65.7C335.7,252.4,287.8,268.5,260.2,276.6z"/>
	</g>
	<g>
		<g>
			
				<ellipse transform="matrix(0.9946 -0.1034 0.1034 0.9946 -8.2772 13.4831)" class="st4" cx="125.9" cy="86.6" rx="9.3" ry="9.8"/>
		</g>
		<g>
			<path class="st4" d="M102.6,112.5c0.7,1.2-0.1,2.8-1.4,2.9c-0.1,0-0.2,0-0.4,0c-1.2,0.1-2.3,0.3-3.5,0.4
				c-1.4,0.2-2.9,0.3-4.3,0.5c-1.8,0.2-3.3,1.8-3.3,3.7c0,2.2,1.9,3.9,3.9,3.7l70.5-7.3c1.8-0.2,3.3-1.8,3.3-3.7
				c0-2.2-1.9-3.9-3.9-3.7l-8.1,0.8c-1.5,0.2-2.6-1.5-1.9-2.9c0,0,0,0,0,0c2.1-4.6,11.2-1.1,11.1-6.9c0-2.2-1.9-3.9-3.9-3.7l-67.5,7
				c-1.8,0.2-3.3,1.8-3.3,3.7c0,3.1,2.7,3.7,5.1,3.7C97.7,110.7,100.5,109.8,102.6,112.5L102.6,112.5z M115.9,111L115.9,111
				c-0.8-1.1-0.2-2.6,1.1-2.8l21.5-2.2c1.1-0.1,2,1.1,1.5,2.2l0,0l0,0c-0.9,2-2.8,3.4-5,3.6l-14,1.5
				C119.1,113.6,117.2,112.7,115.9,111L115.9,111z"/>
		</g>
		<g>
			<path class="st4" d="M172.4,161.8l-32.2,3.4c-0.2,0-0.3,0-0.5,0l-0.3,0c0,0,0-0.1,0-0.1c-0.4-0.2-0.7-0.6-0.8-1.1l0-0.3
				c-0.1-0.8,0.5-1.5,1.2-1.5l1.6-0.2c0.1,0,0.2-0.1,0.3-0.1l17.2-1.8c1.8-0.2,3.1-1.8,2.9-3.7l-0.1-0.6c-0.2-1.9-1.8-3.2-3.6-3
				l-16.3,1.7c0,0,0,0,0,0c-1.6,0.1-1.8-2.4-0.2-2.6c3-0.3,6.1-0.6,9.1-0.9c2.7-0.3,5.5-0.5,8.2-0.9c1.7-0.3,3.5-0.7,4.8-1.9
				c1.5-1.3,1.9-3.3,1.7-5.3c0,0-1.9-17.8-1.9-17.8c-0.1-1.4-0.9-3.2-2.1-4.4c-0.9-1-2.1-1.6-3.4-1.5c0,0-58,6-58,6
				c-0.7,0.1-1.3,0.4-1.8,0.8c-1.9,1.2-3,3.4-2.7,5.8c0,0,1.9,18.5,1.9,18.5c0.7,7.1,8.5,5.3,13.1,4.8c4-0.4,8.1-0.8,12.1-1.3
				c1.6-0.2,1.9,2.4,0.3,2.6c0,0,0,0,0,0l-16.1,1.7c-1.8,0.2-3.1,1.8-2.9,3.7l0.1,0.6c0.2,1.9,1.8,3.2,3.6,3l17.2-1.8
				c0.1,0,0.2,0,0.3,0l1.8-0.2c0.7-0.1,1.4,0.5,1.5,1.3l0,0.3c0.1,0.6-0.2,1.1-0.7,1.4c0,0,0,0,0,0l-0.1,0c-0.1,0.1-0.3,0.1-0.4,0.1
				l-32.4,3.4c-1.4,0.5-2.3,1.9-2.2,3.6l0.1,0.6c0.2,1.9,1.8,3.2,3.6,3l76.1-7.9c1.8-0.2,3.1-1.8,2.9-3.7l-0.1-0.6
				C175.1,163.3,173.9,162,172.4,161.8z M140.4,126.2l6.8-0.7c2.1-0.2,3.9,1.4,4.2,3.5c0.2,2.2-1.3,4.1-3.3,4.3l-6.8,0.7
				c-2.1,0.2-3.9-1.4-4.2-3.5C136.8,128.4,138.3,126.5,140.4,126.2z M138.3,142.7c-0.2-2.2,1.3-4.1,3.3-4.3l6.8-0.7
				c2.1-0.2,3.9,1.4,4.2,3.5l0,0c0.2,2.2-1.3,4.1-3.3,4.3l-6.8,0.7C140.4,146.4,138.5,144.8,138.3,142.7L138.3,142.7z M124.4,144.1
				c0.2,2.2-1.3,4.1-3.3,4.3l-6.8,0.7c-2.1,0.2-3.9-1.4-4.2-3.5l0,0c-0.2-2.2,1.3-4.1,3.3-4.3l6.8-0.7
				C122.3,140.4,124.1,141.9,124.4,144.1L124.4,144.1z M119.7,136.3l-6.8,0.7c-2.1,0.2-3.9-1.4-4.2-3.5c-0.2-2.2,1.3-4.1,3.3-4.3
				l6.8-0.7c2.1-0.2,3.9,1.4,4.2,3.5C123.3,134.2,121.8,136.1,119.7,136.3z"/>
		</g>
	</g>
	<g>
		<g>
			<path class="st4" d="M118.9,221.6c-0.2,3,2.1,5.7,5.2,5.8c0,0,0.1,0,0.1,0c0,0,9.9,0.6,9.9,0.6c1.2,0.1,2.1,1.2,2,2.4l0,0.1
				c-0.1,1.2-1.1,2.1-2.3,2.1l0,0l-8-0.5c-3-0.2-5.7,2.1-5.8,5.2c-0.2,3,2.1,5.6,5.1,5.8c1.6,0.1,3.3,0.2,4.9,0.3
				c0.6,0,1.2,0.1,1.8,0.1c0.8,0,1.5,0,2.1,0.5c0.5,0.4,0.8,1.1,0.8,1.8l0,0.1c0,0.5-0.2,1-0.6,1.3c-0.2,0.2-0.4,0.3-0.6,0.4
				c-0.6,0.2-1,0.2-1.6,0.2c-0.8,0-1.5-0.1-2.3-0.1c-2.1-0.1-4.3-0.3-6.4-0.4c-1.6-0.1-3.3-0.2-4.9-0.3c-0.2,0-0.3,0-0.5,0
				c-3-0.2-5.7,2.1-5.8,5.2c-0.2,3,2.1,5.7,5.2,5.8l41.4,2.5c3,0.2,5.7-2.1,5.8-5.2c0.2-3-2.1-5.7-5.2-5.8c-1.1-0.1-2.2-0.1-3.3-0.2
				c-2.2-0.1-4.3-0.3-6.5-0.4c-1.6-0.1-3.2-0.2-4.9-0.3c-1.2-0.1-2.1-1.1-2-2.2l0-0.1c0-0.6,0.3-1.1,0.8-1.4
				c0.9-0.7,2.5-0.5,3.6-0.4c1.2,0.1,2.4,0.1,3.7,0.2c0.9,0.1,1.8,0.1,2.7,0.2c3,0.2,5.6-2.2,5.8-5.2c0.2-3-2.1-5.7-5.2-5.8
				l-9.1-0.5l0-0.1c-1.1-0.2-1.8-1.2-1.8-2.3l0-0.1c0.1-1.1,0.9-2,2-2.1l0,0l10,0.6c3,0.2,5.7-2.1,5.8-5.2c0-0.2,0-0.4,0-0.6
				l1.7-28.5c0-0.2,0.1-0.4,0.1-0.6c0.2-3-2.1-5.7-5.2-5.8l-31-1.9c-3-0.2-5.7,2.1-5.8,5.2L118.9,221.6z M146.9,198.1l5.9,0.4
				c2.1,0.1,3.7,1.9,3.6,4.1c-0.1,2.1-1.9,3.7-4.1,3.6l-5.9-0.4c-2.1-0.1-3.7-1.9-3.6-4.1C143,199.6,144.8,198,146.9,198.1z
				 M134.6,218.5l-5.9-0.4c-2.1-0.1-3.7-1.9-3.6-4.1c0.1-2.1,1.9-3.7,4.1-3.6l5.9,0.4c2.1,0.1,3.7,1.9,3.6,4.1
				C138.6,217,136.7,218.6,134.6,218.5z M135.4,205.1l-5.9-0.4c-2.1-0.1-3.7-1.9-3.6-4.1c0.1-2.1,1.9-3.7,4.1-3.6l5.9,0.4
				c2.1,0.1,3.7,1.9,3.6,4.1C139.4,203.6,137.5,205.3,135.4,205.1z M142.1,215.1c0.1-2.1,1.9-3.7,4.1-3.6l5.9,0.4
				c2.1,0.1,3.7,1.9,3.6,4.1c-0.1,2.1-1.9,3.7-4.1,3.6l-5.9-0.4C143.5,219,141.9,217.2,142.1,215.1z"/>
		</g>
		<g>
			<path class="st4" d="M201.7,215.8c-0.6-0.2-1.3-0.3-2.1-0.4c-3-0.2-7.1-0.4-5.2-4.7c2-4.5,6.3-8.5,5.7-13.8c-0.2-2-1.1-2.8-2-3.4
				c-0.9-1-2.2-1.6-3.7-1.7l-23.4-1.4c-3.2-0.2-6,2.5-5.8,5.8c0.2,2.8,2.6,5,5.4,5.2c4.1,0.3,8.3,0.2,12.4,0.8
				c0.3,0,0.6,0.1,0.8,0.2c2.6,0.7,3,2.7,2.9,5.5c0,0,0,0.6,0,0.6c-0.1,1.1-0.4,2.5-1.2,3.3c-1.6,1.6-1.3,0-1.5-1.3
				c-0.5-2.6-2.7-4.5-5.3-4.7c-3.1-0.2-5.7,2.2-5.9,5.2l0,0.8c-0.1,0.8-0.8,1.5-1.6,1.4c-0.3,0-0.6-0.1-0.8-0.1c-0.2,0-0.4,0-0.5,0
				c-1.3-0.1-2.6-0.2-3.9-0.2c-3.3-0.2-6.1,2.5-5.8,5.9c0.2,2.8,2.6,5,5.4,5.1l3.5,0.2c1.4,0.1,2.5,1.1,2.9,2.4l-1.8,28.9
				c-0.1,1.9,0.8,3.7,2.2,4.7c1,0.9,2.4,1.4,3.9,1.3c1.5-0.1,2.7-0.8,3.6-1.8c0.9-0.9,1.4-2.1,1.5-3.5l1.8-29.5
				c0.3-0.9,1.1-1.5,2.1-1.5l0.5,0c1.3,0.1,1.9,1.5,1.1,2.5l-1.4,1.8c-2,2.6-1.4,6.4,1.5,8.2c2.4,1.5,5.6,0.7,7.3-1.5l8.8-11.1
				c0.2-0.2,0.3-0.5,0.5-0.7c0.9-0.9,1.6-2.2,1.6-3.6C205.2,218.4,203.9,216.6,201.7,215.8z"/>
		</g>
	</g>
	<g>
		<g>
			<g>
				<path class="st4" d="M263.8,138.9c1-5.2-2-12.2-3-16.9c-0.7-3.4-0.7-7,0.2-10.4c0.6-2.2,1.1-4.5,1.7-6.7
					c0.8-3.3,1.5-6.9,0.2-10.4c-2.1-5.5-7.8-4.8-12.5-5.2c-3.8-0.3-7.7-0.6-11.5-0.9c-1.4-0.1-2.7,0.3-3.7,1.1
					c-1.4,0.9-2.3,2.5-2.5,4.2l-4.2,55.6c-0.2,2.9,1.6,5.6,4.5,6.2c3.4,0.7,6.5-1.8,6.8-5.1l3.4-45.6c0.2-2.6,2.5-4.6,5.1-4.4
					c5.3,0.4,1.8,8.5,1.1,11.2c-1.3,4.8-0.4,9.8,0.7,14.5c0.8,3.6,3.1,8.4,0,11.5c-2.8,2.8-7.9,4.5-5.5,9.6c1.5,3.1,5.4,4.1,8.2,2.3
					c3.6-2.3,8.6-4.4,10.4-8.7C263.4,140.2,263.6,139.5,263.8,138.9z"/>
			</g>
			<g>
				<path class="st4" d="M232.9,114c-0.6-4.1-4-3.9-7.2-4.8c-3.9-1.1-3.3-5.9-1.8-9c1.2-2.4,3.2-1.6,5.1-2.6c2.1-1.1,3.3-3.5,3-5.9
					c-0.4-2.6-2.7-4.6-5.3-4.8l-20-1.5l-20-1.5c-2.7-0.2-5.2,1.4-6,3.9c-0.6,2-0.1,4.3,1.5,5.8c1.7,1.6,4.4,1,5.1,3.4
					c0.6,2.1,1,4.8,0.1,6.8c-1.1,2.5-2.6,2.1-4.9,1.9c-2.7-0.2-5.2,1.4-6,3.9c-1.1,3.6,1.4,7.1,5,7.3l22.6,1.7l0.1,0l22.7,1.7
					C230.4,120.7,233.5,117.7,232.9,114z M213.9,99.1c-2.1,3.1-4.4,8.6-8.8,8.3c-4.5-0.2-6-6.2-7.7-9.6c-0.4-0.9,0.3-1.8,1.2-1.8
					l7,0.5l0,0l7.3,0.5C214,97.3,214.5,98.4,213.9,99.1z"/>
			</g>
			<g>
				<path class="st4" d="M181.8,145.2c-0.2,3.2,2.2,6,5.4,6.2l0,0l0,0l29,2.2c3.1,0.2,5.9-2.1,6.1-5.3l1.4-18.8
					c0.2-3.1-2.1-5.9-5.3-6.1l-29-2.2l0,0l-0.1,0c-3.1-0.2-5.9,2.1-6.1,5.3L181.8,145.2z M206.7,143.7l-8.7-0.7
					c-2.8-0.2-5.2-2.3-5.7-5c-0.6-3.9,2.6-7.2,6.4-6.9l9.1,0.7c1.8,0.1,3.3,1,4.3,2.4l0.2,0l0,0.2c1,1.4,1.4,3.2,0.8,5.1
					C212.2,142.2,209.5,143.9,206.7,143.7z"/>
			</g>
		</g>
		<g>
			
				<ellipse transform="matrix(0.997 -7.700537e-02 7.700537e-02 0.997 -4.9503 16.3012)" class="st4" cx="208.9" cy="72.3" rx="9.3" ry="9.8"/>
		</g>
	</g>
	<g>
		<g>
			<g>
				<path class="st4" d="M297.2,244.3c-0.3-0.6-0.8-1-1.4-1.4c-5-3.2-10.2-6.6-14.8-10.5c-2.5-2.1-3.3-5.6-2-8.6
					c1.1-2.8,2.1-5.6,2.9-8.5c0.2-0.9,1.2-7,1.8-11.7c0.3-1.9,1.8-3.3,3.6-3.5l0,0c2.7-0.3,4.9-2.2,5.2-4.9c0.5-3.7-2.6-6.7-6.1-6.4
					l-18,1.7c-2.3,0.2-4.2-1.9-3.6-4.2l0,0c0.6-2.6-0.5-5.4-2.9-6.5c-3.4-1.7-7.2,0.3-8,3.7l-5.6,23.3c-0.7,3,1.2,6.1,4.2,6.8l0,0
					c0.5,0.1,1,0.2,1.6,0.1c1.6-0.1,3,1,3.5,2.5c0.3,0.8,0.5,1.4,0.6,1.7c1.1,2.4,2.3,4.8,3.7,7c1.5,2.5,1.2,5.7-0.6,8
					c-4.5,5.4-9.8,10.3-15.2,14.9c-0.5,0.4-1,1-1.2,1.6c-1.2,2.8,2.5,3.7,4.5,3.3c7.3-1.4,13.3-5.3,18.1-10.5
					c2.2-2.3,5.9-2.6,8.4-0.6c5.3,4.2,11.3,6.9,18,6.8C295.7,248.4,298.7,246.8,297.2,244.3z M268.8,201.8c2.3-0.2,4.2,1.7,3.9,4
					c-0.3,2.3-0.6,4.4-0.7,4.9c-0.2,1-0.4,2-0.7,3c-0.6,2.2-3.7,2.4-4.6,0.3c-0.4-0.8-0.7-1.7-1-2.6c-0.2-0.5-0.9-2.7-1.6-5
					c-0.7-2.2,0.8-4.4,3.1-4.6L268.8,201.8z"/>
			</g>
			<g>
				<path class="st4" d="M232.3,220.8l1.1-0.1c1.8-0.2,3.3,1.4,3,3.1c-1,6.3-2.9,14.6-6.9,24.3c-1.3,3.3,1,4.8,3.7,5
					c3.6,0.3,6.8-1.6,8.7-4.9c4.2-7.5,5.4-18,6.2-26.6c0.1-1,0.1-3.7,0-6.4c0-0.1,0-0.2,0-0.3c0.2-1.2,0-2.4-0.8-3.7
					c-1.2-2-3.5-3-5.8-2.7c0,0-6.7,0.6-6.7,0.6c-6.8,0.7-7.1-10-0.5-10.6l10.3-1c3.3-0.3,5.7-3.5,5-6.9c-0.6-2.8-3.4-4.6-6.3-4.3
					l-32.2,3.1c-2.9,0.3-5.3,2.6-5.4,5.5c-0.1,3.4,2.9,6.1,6.2,5.8c2.7-0.3,6.6-0.2,6.5,3.7c-0.3,9.6-1.7,28.2-8,44
					c-2.8,6.9,10.4,5.1,12.4-0.1c0-0.1,4.2-10.4,5.7-23.9C228.9,222.5,230.4,221,232.3,220.8z"/>
			</g>
		</g>
		<g>
			<ellipse transform="matrix(0.956 -0.2932 0.2932 0.956 -40.9338 74.1999)" class="st4" cx="227" cy="173.6" rx="9.3" ry="9.8"/>
		</g>
	</g>
	<g>
		<g>
			<path class="st0" d="M94.8,230.8l-0.2,0c-0.8,0.1-1.5-0.6-1.6-1.4l-0.3-4.8c-0.1-0.8,0.6-1.5,1.4-1.6l0.2,0
				c0.8-0.1,1.5,0.6,1.6,1.4l0.3,4.8C96.2,230,95.6,230.8,94.8,230.8z"/>
		</g>
		<g>
			<path class="st6" d="M52.6,207.7c-2.7,2.1-6.6,0.4-6.9-3.1c-0.2-1.7-0.2-3.5,0.1-5.3c0.1-0.4,0.2-0.9,0.3-1.3
				c0.5-1.4,2-1.9,3.3-1.3c0.7,0.3,1.3,0.7,2,1.1c0.9,0.5,1.8,0.1,2-0.9c0.2-0.8,0.2-1.5,0.3-2.3c0.2-1.1,0.6-2.1,1.4-2.9
				c0.7-0.6,1.7-0.7,2.4-0.1c0.5,0.4,0.9,0.8,1.4,1.3c1.3,1.2,2,1.1,2.9-0.5c0.4-0.8,0.9-1.6,1.5-2.3c1-1.2,1.8-1.2,2.8-0.1
				c1.4,1.6,3.9,3.8,3.4,6.1c-0.7,3.6-5.8,3.9-8.3,5.5C58.2,203.5,55.3,205.6,52.6,207.7z"/>
		</g>
		<g>
			<path class="st2" d="M23,225.6c0-0.1,0-0.1,0-0.2c1.2-5.5,4.2-9.6,8.6-13c5.1-3.8,10.7-0.9,16.3-1.3c5.6-0.4,8.6-3.9,12.7-7.4
				c5.3-4.5,31.3-12.3,32.9-0.2c0.1,0.7,16-3.1,13.5,6.1c-1.2,4.4-6.8,6.7-10.9,7.2c-2.4,0.3-4.9,0.3-7,1.5
				c-4.7,2.9,0.9,10.8-3.4,15.5c-2.6,2.8-6.9,5.4-10.7,6.3c-9.5,2.4-18.8-2.5-28.7,0.7c-3.4,1.1-6.6,2.7-10.1,3.4
				C23.8,247,20.9,235.6,23,225.6z"/>
		</g>
		<g>
			<path class="st7" d="M43.5,213c2.2-0.8,3.9-2.6,2.4-4c-0.7-0.7-1.5-1.4-2.3-1.9c-0.6-0.4-1.2-0.7-1.9-0.8c-0.8-0.1-1.3,0.3-2,0.7
				c-1,0.9-1.8,2.1-1.8,3.4C37.8,213.7,41,214,43.5,213z"/>
		</g>
		<g>
			<path class="st7" d="M34.7,212.3c1.7-0.6,3.1-2,1.9-3.2c-0.6-0.5-1.1-1.1-1.8-1.5c-0.4-0.3-1-0.5-1.5-0.6c-0.6-0.1-1,0.3-1.6,0.5
				c-0.8,0.7-1.4,1.6-1.4,2.7C30.3,212.9,32.8,213.1,34.7,212.3z"/>
		</g>
		<g>
			<path class="st8" d="M94.2,225.9l1.4-0.1c1.4-0.1,2.3-2.3,1.8-4.5l-2-8.9l0,0c-0.5-2.4-3.9-2.1-4.2,0.3l0,0l-0.8,9.1
				c-0.2,2.2,1,4.3,2.4,4.2L94.2,225.9z"/>
		</g>
		<g>
			<path class="st0" d="M101.9,223l-0.1,0c-0.5,0-1-0.4-1-0.9l-0.2-3.1c0-0.5,0.4-1,0.9-1l0.1,0c0.5,0,1,0.4,1,0.9l0.2,3.1
				C102.9,222.5,102.5,222.9,101.9,223z"/>
		</g>
		<g>
			<path class="st6" d="M101.5,219.7l0.9-0.1c0.9-0.1,1.5-1.5,1.2-2.9l-1.3-5.8l0,0c-0.3-1.5-2.6-1.4-2.7,0.2l0,0l-0.5,5.9
				c-0.1,1.5,0.6,2.8,1.5,2.8L101.5,219.7z"/>
		</g>
		<g>
			<g>
				<path class="st4" d="M35.2,228.7c2.8-5.8,9.7,2.3,12.3-3.6c0.2-0.5-0.6-1-0.8-0.5c-1.7,3.7-5,0.9-7.8,0.8c-2,0-3.7,1-4.5,2.8
					C34.1,228.8,34.9,229.2,35.2,228.7L35.2,228.7z"/>
			</g>
		</g>
		<g>
			
				<ellipse transform="matrix(0.9982 -5.976997e-02 5.976997e-02 0.9982 -12.701 3.7945)" class="st4" cx="57.1" cy="214.2" rx="1.5" ry="1.5"/>
		</g>
		<g>
			
				<ellipse transform="matrix(0.9982 -5.994911e-02 5.994911e-02 0.9982 -12.6126 4.3237)" class="st4" cx="65.8" cy="212.4" rx="1.5" ry="1.5"/>
		</g>
		<g>
			<g>
				<path class="st4" d="M62.9,231.5c1.3-0.9,2.7-1.8,4.4-1.3c0.7,0.2,1.4,0.6,2.1,0.6c1.4,0,2.6-0.6,3.5-1.7
					c0.4-0.4-0.3-1.1-0.6-0.6c-1.7,2-3.3,1.1-5.4,0.7c-1.7-0.3-3.2,0.7-4.5,1.6C61.9,231.1,62.4,231.9,62.9,231.5L62.9,231.5z"/>
			</g>
		</g>
		<g>
			<g>
				<path class="st4" d="M78.6,210.8c1.3-0.9,2.7-1.8,4.4-1.3c0.7,0.2,1.4,0.6,2.1,0.6c1.4,0,2.6-0.6,3.5-1.7
					c0.4-0.4-0.3-1.1-0.6-0.6c-1.7,2-3.3,1.1-5.4,0.7c-1.7-0.3-3.2,0.7-4.5,1.6C77.7,210.3,78.1,211.1,78.6,210.8L78.6,210.8z"/>
			</g>
		</g>
		<g>
			<g>
				<path class="st4" d="M63.1,219.5c-0.3,1.2-2.3,1.7-3.1,0.7c-0.5-0.7-1.7,0-1.1,0.7c1.5,1.9,4.8,1.4,5.5-1
					C64.6,219,63.3,218.7,63.1,219.5L63.1,219.5z"/>
			</g>
		</g>
	</g>
	<g>
		<g>
			
				<ellipse transform="matrix(0.9979 -6.455940e-02 6.455940e-02 0.9979 -1.8713 8.1534)" class="st0" cx="125.2" cy="33" rx="5.4" ry="5.4"/>
		</g>
		<g>
			<path class="st6" d="M118.8,72c-16.7-1-13.9-27.8-10.4-38.2c1.5-4.5,6.9-8,10.7-3.7c1.1,1.3,2.6,5.2,3.7,6.6
				c1.5,1.7,3.8,1.7,5.1-0.1c1-1.4,1.4-5.6,2.4-7c1.3-2.1,3-3.9,5.5-4.7c2-0.7,4.2,0.2,5.2,2c0.7,1.2,1.6,5.1,2.3,6.4
				c1.8,3.7,3.4,4,6.5,1.5c1.6-1.3,2.9-5.1,4.7-6c4-2,6.6,2.3,7.8,5.5c3,8.2,9.9,29.3-4.1,31.7c-5.2,0.9-10.5,0.1-15.6,1.1
				c-5,1-9.8,3-14.8,4.1C125.3,71.7,122,72.2,118.8,72z"/>
		</g>
		<g>
			<path class="st4" d="M129.6,47.7c-0.2,0.8-1.1,1.2-2,1c-0.9-0.2-1.3-1-1.1-1.8c0.2-0.8,1.1-1.2,2-1
				C129.4,46.1,129.8,46.9,129.6,47.7z"/>
		</g>
		<g>
			<path class="st4" d="M142.5,48c-0.2,0.8-1.1,1.2-2,1c-0.9-0.2-1.3-1-1.1-1.8c0.2-0.8,1.1-1.2,2-1C142.3,46.4,142.7,47.2,142.5,48
				z"/>
		</g>
		<g>
			
				<ellipse transform="matrix(0.9979 -6.451937e-02 6.451937e-02 0.9979 -3.9974 7.1137)" class="st9" cx="108.1" cy="65.4" rx="2.6" ry="2.6"/>
		</g>
		<g>
			
				<ellipse transform="matrix(0.9979 -6.455967e-02 6.455967e-02 0.9979 -4.2819 7.0841)" class="st9" cx="107.5" cy="69.8" rx="2.4" ry="2.4"/>
		</g>
		<g>
			
				<ellipse transform="matrix(0.9979 -6.453922e-02 6.453922e-02 0.9979 -4.4283 7.3308)" class="st9" cx="111.3" cy="72.2" rx="2.4" ry="2.4"/>
		</g>
		<g>
			
				<ellipse transform="matrix(0.9979 -6.434206e-02 6.434206e-02 0.9979 -4.3254 7.5533)" class="st9" cx="115.1" cy="70.9" rx="2.4" ry="2.4"/>
		</g>
		<g>
			
				<ellipse transform="matrix(0.9979 -6.445745e-02 6.445745e-02 0.9979 -4.0478 7.5826)" class="st9" cx="115.5" cy="66.5" rx="2.4" ry="2.4"/>
		</g>
		<g>
			
				<ellipse transform="matrix(0.9979 -6.450682e-02 6.450682e-02 0.9979 -3.9116 7.3679)" class="st9" cx="112.1" cy="64.3" rx="2.6" ry="2.6"/>
		</g>
		<g>
			
				<ellipse transform="matrix(0.9979 -6.439331e-02 6.439331e-02 0.9979 -4.1501 7.3234)" class="st4" cx="111.5" cy="68" rx="2.9" ry="2.9"/>
		</g>
		<g>
			<path class="st7" d="M156.1,69.9c1.8-0.7,3.2-2.1,1.9-3.3c-0.6-0.6-1.2-1.1-1.9-1.6c-0.5-0.3-1-0.6-1.5-0.6
				c-0.7-0.1-1.1,0.3-1.6,0.6c-0.8,0.7-1.4,1.7-1.5,2.8C151.5,70.4,154.1,70.6,156.1,69.9z"/>
		</g>
		<g>
			<path class="st7" d="M149.9,69.5c1.8-0.7,3.2-2.1,1.9-3.3c-0.6-0.6-1.2-1.1-1.9-1.6c-0.5-0.3-1-0.6-1.5-0.6
				c-0.7-0.1-1.1,0.3-1.6,0.6c-0.8,0.7-1.4,1.7-1.5,2.8C145.3,70.1,147.9,70.3,149.9,69.5z"/>
		</g>
		<g>
			<path class="st0" d="M159.8,70l-0.2,0c-0.8,0.1-1.5-0.6-1.5-1.3l-0.3-4.8c-0.1-0.8,0.6-1.5,1.3-1.5l0.2,0
				c0.8-0.1,1.5,0.6,1.5,1.3l0.3,4.8C161.2,69.2,160.6,69.9,159.8,70z"/>
		</g>
		<g>
			<path class="st8" d="M159.2,66l1.4-0.1c1.4-0.1,2.2-2.3,1.8-4.4l-1.9-8.8l0,0c-0.5-2.3-3.9-2.1-4.1,0.3l0,0l-0.8,8.9
				c-0.2,2.2,0.9,4.3,2.3,4.2L159.2,66z"/>
		</g>
		<g>
			<g>
				<path class="st4" d="M135.9,52.4c2.3,0.2,1.2,3.6,0,4.5c-1.7,1.3-3.3-0.4-3.6-2.1c-0.2-1.1-0.1-2.2,1.2-2.4c0.2,0,0.4,0,0.6,0
					C134.6,52.4,135.2,52.4,135.9,52.4c0.6,0,0.6-1,0-1c-1.2,0-2.9-0.3-3.9,0.6c-1.6,1.4-0.6,4.4,0.8,5.6c4.2,3.3,7.9-5.7,3.1-6.1
					C135.2,51.4,135.2,52.3,135.9,52.4z"/>
			</g>
		</g>
	</g>
	<g>
		<g>
			<path class="st6" d="M312.3,144.5c5.4,0.2,10.8,0.4,16.2,0.7c3.4,0.2,6.1-2.8,5.5-6.2c-0.6-3.7-1.5-7.3-2.6-10.9
				c-0.9-2.9-2.7-5-5.5-6.1c-4.7-1.9-9.5-3.5-14.4-4.2c-3.3-0.5-6.3,2.4-5.9,5.7c0.5,5.4,1.2,10.8,1.7,16.2
				C307.5,142.4,309.7,144.5,312.3,144.5z"/>
		</g>
		<g>
			<path class="st0" d="M302.9,123.6c-0.3-3.3-3.3-5.7-6.6-5.3c-4.2,0.5-8.3,1.2-12.4,1.8c-3.2,0.5-5.6,1.4-6,4.8
				c-0.5,4.6-1,9.1-1.5,13.7c-0.3,3.6,2.6,6.7,6.3,6.4c5.3-0.4,10.6-0.6,15.9-0.6c3.5,0,6.2-3,5.8-6.5
				C303.9,133.2,303.4,128.4,302.9,123.6z"/>
		</g>
		<g>
			<path class="st6" d="M304.6,151.6C304.5,151.6,304.5,151.6,304.6,151.6c-0.1-2.8-2.4-5-5.2-5c-6.6,0-13.3,0.3-19.9,0.8
				c-2.7,0.2-4.8,2.5-4.7,5.3c0,2.5,0.2,5.1,0.7,7.6c0.7,3.8,2.1,7.2,5.3,9.6c1.5,1.1,3,2.2,4.7,2.9c3.9,1.7,7.9,3,12,3.8
				c2.9,0.6,5.7-1.5,6.1-4.5C304.3,165.3,304.8,158.4,304.6,151.6z"/>
		</g>
		<g>
			<path class="st6" d="M329.6,148.1c2.6,0.6,4.8,1.9,4.8,4.9c0.1,3.3-0.2,6.7-1.1,9.6c-1.6,5-5.5,8.9-10.1,11.3
				c-3.9,2.1-8.9,4-13.5,3.2c-4.6-0.8-3.8-6.6-3.3-9.9c0.5-3.2,0.4-6.4,0.4-9.6c0-3.9,0.9-8.3,5-10c3.3-1.3,6.9-1,10.3-0.4
				C324.1,147.5,327.1,147.5,329.6,148.1z"/>
		</g>
		<g>
			
				<ellipse transform="matrix(8.158532e-02 -0.9967 0.9967 8.158532e-02 134.3659 401.8192)" class="st4" cx="285.2" cy="128" rx="1.6" ry="1.6"/>
		</g>
		<g>
			
				<ellipse transform="matrix(8.143077e-02 -0.9967 0.9967 8.143077e-02 142.512 409.9904)" class="st4" cx="293.7" cy="127.7" rx="1.6" ry="1.6"/>
		</g>
		<g>
			<path class="st4" d="M289.5,137.6c-0.1,0-0.1,0-0.2,0c-0.7-0.1-1.3-0.5-1.7-1.2c-0.4-0.6-0.6-1.4-0.5-2.3c0.1-1.8,1.3-3.1,2.7-3
				c1.4,0.1,2.4,1.6,2.2,3.4C291.9,136.3,290.8,137.6,289.5,137.6z M289.7,132.4c-0.7,0-1.3,0.9-1.4,1.9c0,0.6,0.1,1.1,0.3,1.5
				c0.1,0.2,0.4,0.5,0.8,0.6c0.7,0.1,1.3-0.8,1.4-1.9l0,0C290.9,133.4,290.4,132.4,289.7,132.4C289.7,132.4,289.7,132.4,289.7,132.4
				z"/>
		</g>
		<g>
			<g>
				<path class="st4" d="M278.1,151.9c-0.4,0.8-0.5,1.7-0.1,2.6c0.3,0.6,1.1,0.1,0.8-0.5c-0.2-0.5-0.2-1.1,0.1-1.6
					C279.2,151.8,278.4,151.3,278.1,151.9L278.1,151.9z"/>
			</g>
		</g>
		<g>
			<g>
				<path class="st4" d="M281.5,152.1c0,0.5-0.1,1-0.1,1.6c0,0.6,0.9,0.6,1,0c0-0.5,0.1-1,0.1-1.6
					C282.5,151.5,281.5,151.5,281.5,152.1L281.5,152.1z"/>
			</g>
		</g>
		<g>
			<g>
				<path class="st4" d="M286,151.2c-0.1,0.7-0.1,1.4-0.2,2.1c0,0.6,0.9,0.6,1,0c0.1-0.7,0.1-1.4,0.2-2.1
					C287,150.5,286.1,150.5,286,151.2L286,151.2z"/>
			</g>
		</g>
		<g>
			<g>
				<path class="st4" d="M290.3,151.3c0.2,0.5,0.2,1.1,0,1.6c-0.2,0.6,0.8,0.9,0.9,0.3c0.2-0.7,0.2-1.4,0-2.1
					C291.1,150.5,290.1,150.7,290.3,151.3L290.3,151.3z"/>
			</g>
		</g>
		<g>
			<g>
				<path class="st4" d="M294.5,151c0.1,0.8,0.2,1.6,0.3,2.4c0.1,0.6,1.1,0.6,1,0c-0.1-0.8-0.2-1.6-0.3-2.4
					C295.4,150.4,294.4,150.4,294.5,151L294.5,151z"/>
			</g>
		</g>
		<g>
			<g>
				<path class="st4" d="M299.7,150.9c0,0.6-0.1,1.2-0.4,1.8c-0.3,0.6,0.6,1.1,0.8,0.5c0.3-0.7,0.5-1.5,0.5-2.3
					C300.7,150.3,299.7,150.3,299.7,150.9L299.7,150.9z"/>
			</g>
		</g>
		<g>
			<g>
				<path class="st4" d="M278.6,158.5c0,0.6-0.1,1.2-0.1,1.8c0,0.6,0.9,0.6,1,0c0-0.6,0.1-1.2,0.1-1.8
					C279.6,157.9,278.6,157.9,278.6,158.5L278.6,158.5z"/>
			</g>
		</g>
		<g>
			<g>
				<path class="st4" d="M281.7,159c0,0.6-0.1,1.2-0.1,1.8c0,0.6,0.9,0.6,1,0c0-0.6,0.1-1.2,0.1-1.8
					C282.8,158.4,281.8,158.4,281.7,159L281.7,159z"/>
			</g>
		</g>
		<g>
			<g>
				<path class="st4" d="M285.4,158.5c0.1,0.6,0.1,1.2,0.2,1.8c0.1,0.6,1,0.6,1,0c-0.1-0.6-0.1-1.2-0.2-1.8
					C286.3,157.9,285.4,157.9,285.4,158.5L285.4,158.5z"/>
			</g>
		</g>
		<g>
			<g>
				<path class="st4" d="M289.9,158.3c0,0.6-0.1,1.2-0.1,1.8c0,0.6,0.9,0.6,1,0c0-0.6,0.1-1.2,0.1-1.8
					C291,157.7,290,157.7,289.9,158.3L289.9,158.3z"/>
			</g>
		</g>
		<g>
			<g>
				<path class="st4" d="M293.7,157.7c-0.2,0.7-0.2,1.4,0.1,2.1c0.2,0.6,1.2,0.3,0.9-0.3c-0.2-0.5-0.2-1.1-0.1-1.6
					C294.8,157.3,293.9,157.1,293.7,157.7L293.7,157.7z"/>
			</g>
		</g>
		<g>
			<g>
				<path class="st4" d="M297.4,157.3c0,0.4-0.1,0.9-0.1,1.3c0,0.6,0.9,0.6,1,0c0-0.4,0.1-0.9,0.1-1.3
					C298.4,156.7,297.4,156.7,297.4,157.3L297.4,157.3z"/>
			</g>
		</g>
		<g>
			<g>
				<path class="st4" d="M301.6,157.3c0.2,0.5,0,1-0.4,1.4c-0.5,0.4,0.2,1.1,0.7,0.7c0.7-0.5,1-1.5,0.7-2.3
					C302.3,156.4,301.4,156.7,301.6,157.3L301.6,157.3z"/>
			</g>
		</g>
		<g>
			<g>
				<path class="st4" d="M280,164.9c0.1,0.5,0.1,1.1,0.2,1.6c0.1,0.6,1,0.6,1,0c-0.1-0.5-0.1-1.1-0.2-1.6
					C280.9,164.3,279.9,164.3,280,164.9L280,164.9z"/>
			</g>
		</g>
		<g>
			<g>
				<path class="st4" d="M284,164.7c0,0.7,0.1,1.4,0.1,2.1c0,0.6,1,0.6,1,0c0-0.7-0.1-1.4-0.1-2.1
					C284.9,164.1,283.9,164.1,284,164.7L284,164.7z"/>
			</g>
		</g>
		<g>
			<g>
				<path class="st4" d="M288.1,165.3c0,0.6-0.1,1.2-0.1,1.8c0,0.6,0.9,0.6,1,0c0-0.6,0.1-1.2,0.1-1.8
					C289.1,164.7,288.1,164.7,288.1,165.3L288.1,165.3z"/>
			</g>
		</g>
		<g>
			<g>
				<path class="st4" d="M292.1,164.3c-0.1,0.7-0.1,1.4-0.2,2.1c0,0.6,0.9,0.6,1,0c0.1-0.7,0.1-1.4,0.2-2.1
					C293.1,163.7,292.2,163.7,292.1,164.3L292.1,164.3z"/>
			</g>
		</g>
		<g>
			<g>
				<path class="st4" d="M296,165c0.1,0.4,0.1,0.9,0.2,1.3c0.1,0.6,1,0.4,0.9-0.3c-0.1-0.4-0.1-0.9-0.2-1.3
					C296.9,164.1,295.9,164.4,296,165L296,165z"/>
			</g>
		</g>
		<g>
			<g>
				<path class="st4" d="M300.3,163.9c0,0.6-0.1,1.2-0.1,1.8c0,0.6,0.9,0.6,1,0c0-0.6,0.1-1.2,0.1-1.8
					C301.3,163.2,300.4,163.2,300.3,163.9L300.3,163.9z"/>
			</g>
		</g>
		<g>
			<g>
				<path class="st4" d="M288.5,170c-0.4,0.6-0.4,1.3,0,1.8c0.4,0.5,1.2,0,0.8-0.5c-0.2-0.3-0.2-0.5,0-0.8
					C289.7,170,288.8,169.5,288.5,170L288.5,170z"/>
			</g>
		</g>
		<g>
			<g>
				<path class="st4" d="M292.1,170.9c0.1,0.4,0.1,0.9,0.2,1.3c0.1,0.6,1.1,0.6,1,0c-0.1-0.4-0.1-0.9-0.2-1.3
					C293,170.3,292,170.3,292.1,170.9L292.1,170.9z"/>
			</g>
		</g>
		<g>
			<g>
				<path class="st4" d="M296.4,170.7c0.1,0.5,0.1,1.1,0.2,1.6c0.1,0.6,1,0.6,1,0c-0.1-0.5-0.1-1.1-0.2-1.6
					C297.3,170.1,296.3,170,296.4,170.7L296.4,170.7z"/>
			</g>
		</g>
		<g>
			<g>
				<path class="st4" d="M300.8,170c0,0.7-0.2,1.3-0.7,1.7c-0.4,0.5,0.3,1.1,0.7,0.7c0.6-0.7,1-1.5,1-2.4
					C301.8,169.3,300.8,169.3,300.8,170L300.8,170z"/>
			</g>
		</g>
		<g>
			<g>
				<path class="st4" d="M310.1,151c0.2,0.4,0.2,0.9,0.1,1.3c-0.1,0.6,0.8,0.9,0.9,0.3c0.1-0.6,0.1-1.2-0.1-1.8
					C310.9,150.2,309.9,150.4,310.1,151L310.1,151z"/>
			</g>
		</g>
		<g>
			<g>
				<path class="st4" d="M314.6,150.7c0,0.6-0.1,1.2-0.1,1.8c0,0.6,0.9,0.6,1,0c0-0.6,0.1-1.2,0.1-1.8
					C315.6,150.1,314.6,150.1,314.6,150.7L314.6,150.7z"/>
			</g>
		</g>
		<g>
			<g>
				<path class="st4" d="M319.2,151.1c0,0.6-0.1,1.2-0.1,1.8c0,0.6,0.9,0.6,1,0c0-0.6,0.1-1.2,0.1-1.8
					C320.2,150.4,319.3,150.4,319.2,151.1L319.2,151.1z"/>
			</g>
		</g>
		<g>
			<g>
				<path class="st4" d="M323.1,151.1c0.1,0.5,0.1,1,0.2,1.6c0.1,0.6,1,0.6,1,0c-0.1-0.5-0.1-1-0.2-1.6
					C324,150.5,323,150.5,323.1,151.1L323.1,151.1z"/>
			</g>
		</g>
		<g>
			<g>
				<path class="st4" d="M326.6,150.3c0,0.5-0.1,1-0.1,1.6c0,0.6,0.9,0.6,1,0c0-0.5,0.1-1,0.1-1.6
					C327.6,149.7,326.6,149.7,326.6,150.3L326.6,150.3z"/>
			</g>
		</g>
		<g>
			<g>
				<path class="st4" d="M330.5,150.5c0.1,0.4,0,0.8-0.3,1.2c-0.3,0.5,0.5,1,0.8,0.5c0.4-0.6,0.5-1.2,0.4-1.9
					C331.3,149.6,330.4,149.9,330.5,150.5L330.5,150.5z"/>
			</g>
		</g>
		<g>
			<g>
				<path class="st4" d="M309.4,157.7c0.2,0.4,0.2,0.9,0.1,1.3c-0.1,0.6,0.8,0.9,0.9,0.3c0.1-0.6,0.1-1.2-0.1-1.8
					C310.1,156.9,309.1,157.1,309.4,157.7L309.4,157.7z"/>
			</g>
		</g>
		<g>
			<g>
				<path class="st4" d="M313.5,157.1c0.1,0.6,0.1,1.2,0.2,1.8c0.1,0.6,1,0.6,1,0c-0.1-0.6-0.1-1.2-0.2-1.8
					C314.4,156.5,313.5,156.5,313.5,157.1L313.5,157.1z"/>
			</g>
		</g>
		<g>
			<g>
				<path class="st4" d="M318,157.5c0,0.6-0.1,1.2-0.1,1.8c0,0.6,0.9,0.6,1,0c0-0.6,0.1-1.2,0.1-1.8C319,156.9,318,156.9,318,157.5
					L318,157.5z"/>
			</g>
		</g>
		<g>
			<g>
				<path class="st4" d="M321.7,156.7c0,0.6-0.1,1.2-0.1,1.8c0,0.6,0.9,0.6,1,0c0-0.6,0.1-1.2,0.1-1.8
					C322.7,156.1,321.7,156.1,321.7,156.7L321.7,156.7z"/>
			</g>
		</g>
		<g>
			<g>
				<path class="st4" d="M324.7,157.4c0.2,0.6,0.2,1.2,0.1,1.8c-0.1,0.6,0.8,0.9,0.9,0.3c0.1-0.8,0.1-1.6-0.1-2.3
					C325.5,156.5,324.6,156.7,324.7,157.4L324.7,157.4z"/>
			</g>
		</g>
		<g>
			<g>
				<path class="st4" d="M328.4,156.7c0.1,0.5,0.1,1,0.2,1.6c0.1,0.6,1,0.6,1,0c-0.1-0.5-0.1-1-0.2-1.6
					C329.3,156.1,328.4,156.1,328.4,156.7L328.4,156.7z"/>
			</g>
		</g>
		<g>
			<g>
				<path class="st4" d="M332.3,156.6c0.2,0.3,0,0.7-0.3,0.9c-0.6,0.2-0.1,1.1,0.5,0.8c0.8-0.4,1.1-1.4,0.7-2.2
					C332.8,155.6,332,156,332.3,156.6L332.3,156.6z"/>
			</g>
		</g>
		<g>
			<g>
				<path class="st4" d="M309.4,164c-0.1,0.5-0.3,1-0.4,1.5c-0.2,0.6,0.8,0.9,0.9,0.3c0.1-0.5,0.3-1,0.4-1.5
					C310.4,163.6,309.5,163.4,309.4,164L309.4,164z"/>
			</g>
		</g>
		<g>
			<g>
				<path class="st4" d="M312,164.3c-0.1,0.7-0.1,1.4-0.2,2.1c0,0.6,0.9,0.6,1,0c0.1-0.7,0.1-1.4,0.2-2.1
					C313,163.7,312,163.7,312,164.3L312,164.3z"/>
			</g>
		</g>
		<g>
			<g>
				<path class="st4" d="M316.6,164.7c0,0.5-0.1,1-0.1,1.6c0,0.6,0.9,0.6,1,0c0-0.5,0.1-1,0.1-1.6C317.6,164,316.7,164,316.6,164.7
					L316.6,164.7z"/>
			</g>
		</g>
		<g>
			<g>
				<path class="st4" d="M320,164.1c0.1,0.5,0.1,1,0.2,1.6c0.1,0.6,1,0.6,1,0c-0.1-0.5-0.1-1-0.2-1.6
					C320.9,163.5,320,163.5,320,164.1L320,164.1z"/>
			</g>
		</g>
		<g>
			<g>
				<path class="st4" d="M324.3,163.4c0,0.5-0.1,1-0.1,1.6c0,0.6,0.9,0.6,1,0c0-0.5,0.1-1,0.1-1.6
					C325.3,162.8,324.3,162.8,324.3,163.4L324.3,163.4z"/>
			</g>
		</g>
		<g>
			<g>
				<path class="st4" d="M327.8,163.2c0.2,0.4,0.2,0.8,0.1,1.2c-0.2,0.6,0.8,0.9,0.9,0.3c0.2-0.7,0.1-1.3-0.1-2
					C328.4,162.1,327.5,162.6,327.8,163.2L327.8,163.2z"/>
			</g>
		</g>
		<g>
			<g>
				<path class="st4" d="M330.6,162.1c0,0.6-0.1,1.2-0.1,1.8c0,0.6,0.9,0.6,1,0c0-0.6,0.1-1.2,0.1-1.8
					C331.6,161.5,330.7,161.5,330.6,162.1L330.6,162.1z"/>
			</g>
		</g>
		<g>
			<g>
				<path class="st4" d="M309.5,170.2c-0.4,0.5-0.6,1.1-0.4,1.8c0.1,0.6,1.1,0.4,0.9-0.3c-0.1-0.3,0-0.6,0.2-0.8
					C310.5,170.4,309.9,169.7,309.5,170.2L309.5,170.2z"/>
			</g>
		</g>
		<g>
			<g>
				<path class="st4" d="M312.3,170.6c-0.4,0.5-0.5,1.1-0.3,1.7c0.1,0.6,1,0.4,0.9-0.3c-0.1-0.4,0-0.6,0.2-0.9
					C313.5,170.5,312.6,170.1,312.3,170.6L312.3,170.6z"/>
			</g>
		</g>
		<g>
			<g>
				<path class="st4" d="M315.5,170.8c0.2,0.3,0.2,0.6,0.1,0.9c-0.2,0.6,0.8,0.9,0.9,0.3c0.2-0.6,0.1-1.2-0.2-1.7
					C316,169.8,315.2,170.2,315.5,170.8L315.5,170.8z"/>
			</g>
		</g>
		<g>
			<g>
				<path class="st4" d="M319.6,170.1c0,0.5-0.1,1-0.1,1.6c0,0.6,0.9,0.6,1,0c0-0.5,0.1-1,0.1-1.6
					C320.6,169.5,319.6,169.5,319.6,170.1L319.6,170.1z"/>
			</g>
		</g>
		<g>
			<g>
				<path class="st4" d="M322.6,168.6c0.2,0.4,0.2,0.9,0.1,1.3c-0.1,0.6,0.8,0.9,0.9,0.3c0.1-0.6,0.1-1.2-0.1-1.8
					C323.3,167.8,322.4,168.1,322.6,168.6L322.6,168.6z"/>
			</g>
		</g>
		<g>
			<g>
				<path class="st4" d="M326.4,169.5c0.1,0.4,0.1,0.9,0.2,1.3c0.1,0.6,1,0.4,0.9-0.3c-0.1-0.4-0.1-0.9-0.2-1.3
					C327.2,168.6,326.3,168.9,326.4,169.5L326.4,169.5z"/>
			</g>
		</g>
		<g>
			<g>
				<path class="st4" d="M329.4,167.2c0,0.3-0.1,0.7-0.1,1c0,0.6,0.9,0.6,1,0c0-0.3,0.1-0.7,0.1-1
					C330.5,166.6,329.5,166.6,329.4,167.2L329.4,167.2z"/>
			</g>
		</g>
		<g>
			<g>
				<path class="st4" d="M308.5,128.4c0,0.3-0.1,0.7-0.1,1c0,0.6,0.9,0.6,1,0c0-0.3,0.1-0.7,0.1-1
					C309.5,127.8,308.5,127.8,308.5,128.4L308.5,128.4z"/>
			</g>
		</g>
		<g>
			<g>
				<path class="st4" d="M312.4,128.2c0,0.3,0,0.5-0.1,0.8c0,0.6,0.9,0.6,1,0c0-0.3,0-0.5,0.1-0.8
					C313.5,127.6,312.5,127.6,312.4,128.2L312.4,128.2z"/>
			</g>
		</g>
		<g>
			<g>
				<path class="st4" d="M315.8,128.5c0,0.5-0.1,1-0.1,1.6c0,0.6,0.9,0.6,1,0c0-0.5,0.1-1,0.1-1.6
					C316.9,127.8,315.9,127.9,315.8,128.5L315.8,128.5z"/>
			</g>
		</g>
		<g>
			<g>
				<path class="st4" d="M320.3,128.8c0,0.4-0.1,0.9-0.1,1.3c0,0.6,0.9,0.6,1,0c0-0.4,0.1-0.9,0.1-1.3
					C321.3,128.2,320.3,128.2,320.3,128.8L320.3,128.8z"/>
			</g>
		</g>
		<g>
			<g>
				<path class="st4" d="M323.9,129.6c0,0.4-0.1,0.9-0.1,1.3c0,0.6,0.9,0.6,1,0c0-0.4,0.1-0.9,0.1-1.3C325,129,324,129,323.9,129.6
					L323.9,129.6z"/>
			</g>
		</g>
		<g>
			<g>
				<path class="st4" d="M328.1,129.9c0.1,0.2,0.1,0.6-0.2,0.7c-0.6,0.2-0.3,1.2,0.3,0.9c0.7-0.3,1.2-1.1,0.9-1.9
					C328.8,129,327.9,129.3,328.1,129.9L328.1,129.9z"/>
			</g>
		</g>
		<g>
			<g>
				<path class="st4" d="M308.6,134c0,0.4-0.1,0.9-0.1,1.3c0,0.6,0.9,0.6,1,0c0-0.4,0.1-0.9,0.1-1.3
					C309.6,133.3,308.6,133.3,308.6,134L308.6,134z"/>
			</g>
		</g>
		<g>
			<g>
				<path class="st4" d="M312.3,134.4c0.2,0.4,0.2,0.9,0.1,1.3c-0.1,0.6,0.8,0.9,0.9,0.3c0.1-0.6,0.1-1.2-0.1-1.9
					C313,133.5,312,133.8,312.3,134.4L312.3,134.4z"/>
			</g>
		</g>
		<g>
			<g>
				<path class="st4" d="M316.9,134.9c0,0.6-0.1,1.2-0.1,1.8c0,0.6,0.9,0.6,1,0c0-0.6,0.1-1.2,0.1-1.8
					C318,134.3,317,134.3,316.9,134.9L316.9,134.9z"/>
			</g>
		</g>
		<g>
			<g>
				<path class="st4" d="M320.8,135.2c0.1,0.6,0.1,1.2,0.2,1.8c0.1,0.6,1,0.6,1,0c-0.1-0.6-0.1-1.2-0.2-1.8
					C321.7,134.6,320.7,134.6,320.8,135.2L320.8,135.2z"/>
			</g>
		</g>
		<g>
			<g>
				<path class="st4" d="M325.1,135.5c0,0.3,0,0.5-0.1,0.8c0,0.6,0.9,0.6,1,0c0-0.3,0-0.5,0.1-0.8
					C326.1,134.9,325.1,134.9,325.1,135.5L325.1,135.5z"/>
			</g>
		</g>
		<g>
			<g>
				<path class="st4" d="M328.1,134.9c0.2,0.5,0.4,0.9,0.7,1.4c0.3,0.6,1.1,0.1,0.8-0.5c-0.2-0.5-0.4-0.9-0.7-1.4
					C328.7,133.8,327.9,134.3,328.1,134.9L328.1,134.9z"/>
			</g>
		</g>
		<g>
			<g>
				<path class="st4" d="M309,122.9c0,0.4-0.1,0.9-0.1,1.3c0,0.6,0.9,0.6,1,0c0-0.4,0.1-0.9,0.1-1.3C310,122.3,309,122.3,309,122.9
					L309,122.9z"/>
			</g>
		</g>
		<g>
			<g>
				<path class="st4" d="M312.7,123.3c0.2,0.4,0.2,0.9,0.1,1.3c-0.1,0.6,0.8,0.9,0.9,0.3c0.1-0.6,0.1-1.2-0.1-1.9
					C313.4,122.5,312.5,122.7,312.7,123.3L312.7,123.3z"/>
			</g>
		</g>
		<g>
			<g>
				<path class="st4" d="M317.4,123.8c0,0.6-0.1,1.2-0.1,1.8c0,0.6,0.9,0.6,1,0c0-0.6,0.1-1.2,0.1-1.8
					C318.4,123.2,317.4,123.2,317.4,123.8L317.4,123.8z"/>
			</g>
		</g>
		<g>
			<g>
				<path class="st4" d="M321.2,124.1c0.1,0.6,0.1,1.2,0.2,1.8c0.1,0.6,1,0.6,1,0c-0.1-0.6-0.1-1.2-0.2-1.8
					C322.1,123.5,321.2,123.5,321.2,124.1L321.2,124.1z"/>
			</g>
		</g>
		<g>
			<g>
				<path class="st4" d="M325.6,124.9c0,0.3,0,0.5-0.1,0.8c0,0.6,0.9,0.6,1,0c0-0.3,0-0.5,0.1-0.8
					C326.6,124.3,325.7,124.3,325.6,124.9L325.6,124.9z"/>
			</g>
		</g>
		<g>
			<g>
				<path class="st4" d="M308.7,139.9c0.1,0.4,0.1,0.7,0.2,1.1c0.1,0.6,1.1,0.4,0.9-0.3c-0.1-0.4-0.1-0.7-0.2-1.1
					C309.5,139,308.6,139.3,308.7,139.9L308.7,139.9z"/>
			</g>
		</g>
		<g>
			<g>
				<path class="st4" d="M312.6,139.8c0,0.4-0.1,0.9-0.1,1.3c0,0.6,0.9,0.6,1,0c0-0.4,0.1-0.9,0.1-1.3
					C313.6,139.2,312.6,139.2,312.6,139.8L312.6,139.8z"/>
			</g>
		</g>
		<g>
			<g>
				<path class="st4" d="M317,140.8c0.2,0.4,0.2,0.9,0.1,1.3c-0.1,0.6,0.8,0.9,0.9,0.3c0.1-0.6,0.1-1.2-0.1-1.9
					C317.8,140,316.8,140.2,317,140.8L317,140.8z"/>
			</g>
		</g>
		<g>
			<g>
				<path class="st4" d="M321.3,140.2c0.1,0.4,0.1,0.9,0.2,1.3c0.1,0.6,1.1,0.6,1,0c-0.1-0.4-0.1-0.9-0.2-1.3
					C322.2,139.6,321.2,139.6,321.3,140.2L321.3,140.2z"/>
			</g>
		</g>
		<g>
			<g>
				<path class="st4" d="M325.1,141.3c0,0.3-0.1,0.7-0.1,1c0,0.6,0.9,0.6,1,0c0-0.3,0.1-0.7,0.1-1
					C326.2,140.7,325.2,140.7,325.1,141.3L325.1,141.3z"/>
			</g>
		</g>
		<g>
			<g>
				<path class="st4" d="M328.9,140.8c0,0.5-0.1,1-0.1,1.6c0,0.6,0.9,0.6,1,0c0-0.5,0.1-1,0.1-1.6
					C329.9,140.2,328.9,140.2,328.9,140.8L328.9,140.8z"/>
			</g>
		</g>
	</g>
</g>
<g>
	<path class="st4" d="M107.3,302.3c0,0.7-0.3,1-0.9,1l-9.9-0.2l0,1.4l7,0.2c1.1,0,1.6,0.5,1.6,1.4l-0.1,5.1c0,1-0.6,1.5-1.6,1.4
		c0.1,0.1,0.1,0.1,0.1,0.1c0.8,0.8,1.5,1.8,2.2,2.8c0.1,0.2,0.2,0.5,0.2,0.6c0,0.6-0.3,0.8-1,0.8c-0.2,0-0.4-0.1-0.5-0.2
		c-0.4-0.5-0.7-1-1.1-1.5l0,0c-0.4,0-0.7,0-1,0l-0.1,2.2l4.5,0.1c0.5,0,0.8,0.3,0.8,0.9c0,0.7-0.3,0.9-0.9,0.9l-4.5-0.1l-0.1,3.1
		c0,1.5-0.9,2.3-2.6,2.3c-1.1,0-2.5-0.3-4.2-0.9c-0.5-0.2-0.7-0.5-0.7-1c0-0.6,0.3-0.9,0.8-0.9c0.1,0,0.4,0,0.6,0.1
		c1.6,0.5,2.7,0.7,3.3,0.7c0.6,0,1-0.4,1-1.1l0.1-2.3l-17-0.4c-0.6,0-0.8-0.3-0.8-1c0-0.5,0.3-0.8,0.9-0.8l17,0.4l0.1-2.1
		c-5.4,0.1-10.5,0.2-15.4,0.1c-0.6,0-0.8-0.3-0.8-1c0-0.5,0.3-0.8,0.9-0.8c3.3,0.1,6.4,0.1,9.3,0.1l0-1.4l-7.3-0.2
		c-1,0-1.5-0.5-1.5-1.5l0.1-5.1c0-0.9,0.5-1.4,1.5-1.3l7.3,0.2l0-1.4l-10.3-0.2c-0.6,0-0.8-0.3-0.8-1c0-0.5,0.3-0.8,0.9-0.8
		l10.3,0.2l0-1.1c0-0.6,0.3-0.9,1-0.9c0.6,0,0.9,0.3,0.9,1l0,1.1l9.9,0.2C107.1,301.5,107.4,301.8,107.3,302.3z M94.6,308.9l-7-0.2
		l0,1.1c0,0.5,0.1,0.8,0.5,0.8l6.5,0.2L94.6,308.9z M94.6,307.5l0-1.5l-6.5-0.2c-0.4,0-0.5,0.2-0.6,0.6l0,0.9L94.6,307.5z
		 M90.6,319.8c0.7,0.7,1.4,1.4,2,2.3c0.1,0.2,0.2,0.4,0.2,0.6c0,0.5-0.3,0.8-1,0.8c-0.2,0-0.4-0.1-0.5-0.2c-0.7-0.8-1.3-1.6-2.1-2.4
		c-0.2-0.3-0.2-0.4-0.2-0.5c0-0.6,0.4-0.9,1.1-0.9C90.2,319.4,90.4,319.5,90.6,319.8z M102,313.3c0-0.4,0.1-0.6,0.3-0.8l-6-0.1
		l0,1.3c2,0,3.9,0,5.8-0.1C102,313.4,102,313.3,102,313.3z M103.2,310.2l0-1.1l-6.8-0.2l0,1.8l6.2,0.1
		C103,310.9,103.2,310.7,103.2,310.2z M96.5,307.5l6.8,0.2l0-0.9c0-0.4-0.2-0.6-0.6-0.6l-6.2-0.1L96.5,307.5z"/>
	<path class="st4" d="M113.3,319.2c-0.3,1.9-0.8,3.4-1.3,4.6c-0.2,0.4-0.5,0.7-0.8,0.7c-0.7-0.1-1-0.4-1.1-1c0-0.2,0.1-0.5,0.3-1.1
		c0.1-0.4,0.3-0.9,0.5-1.5c0.2-0.9,0.4-1.8,0.6-2.8c0.3-2.1,0.5-4.3,0.5-6.6l0-8.9c0-1.1,0.6-1.7,1.9-1.7l18.6,0
		c1,0,1.5,0.4,1.5,1.3l0,2c0,0.9-0.5,1.3-1.5,1.3l-8.1,0l0,4.2c0,0.1,0,0.2-0.1,0.3l8,0c0.9,0,1.4,0.3,1.4,1l0,2.2
		c0,0.7-0.5,0.9-1.4,0.9l-13.9,0c0,0.1,0,0.1,0,0.1c0,0.1-0.1,0.3-0.1,0.4c-0.1,0.2-0.1,0.3-0.2,0.4l14.6,0c1.2,0,1.8,0.6,1.8,1.8
		c0,1.8-0.1,3.4-0.2,4.8c-0.1,1.3-0.4,2.1-0.8,2.5c-0.4,0.4-1,0.6-1.8,0.6c-0.5,0-1-0.1-1.5-0.2c-0.4-0.2-0.6-0.5-0.6-0.9
		c0-0.8,0.3-1.1,1-1.1c0.4,0.2,0.8,0.3,1.1,0.3c0.3,0,0.5-0.2,0.7-0.4c0.1-0.3,0.2-0.8,0.3-1.6c0.1-0.9,0.1-2,0.1-3.2
		c0-0.8-0.3-1.3-0.8-1.3l-8.6,0l0,1.4l5.5,0c1,0,1.5,0.4,1.5,1.1l0,1.4c0,0.8-0.5,1.2-1.5,1.2l-1.7,0c0.6,0.7,1.1,1.3,1.7,2.1
		c0.1,0.2,0.1,0.4,0.1,0.5c0,0.5-0.3,0.8-0.8,0.8c-0.2,0-0.3-0.1-0.4-0.1c-0.2-0.4-0.5-0.7-0.7-1c-4.5,0.3-8.8,0.6-12.8,0.7
		c-0.5,0-0.7-0.3-0.7-0.8c0-0.5,0.2-0.8,0.7-0.8c2.7,0,5.1-0.1,7.4-0.2l0-1.3l-4.9,0c-0.9,0-1.4-0.4-1.4-1.2l0-1.4
		c0-0.7,0.5-1.1,1.4-1.1l4.9,0l0-1.4l-3.9,0c-0.2,0-0.3,0-0.3,0c-0.4,0.4-0.8,0.8-1.2,1.2c-0.4,0.3-0.9,0.6-1.5,0.9
		c-0.2,0.1-0.4,0.1-0.5,0.1c-0.2,0-0.4-0.1-0.5-0.2c-0.1,0-0.1-0.1-0.1-0.1C113.4,318.6,113.3,318.9,113.3,319.2z M113.9,305.5l0,6
		c0,2.1-0.1,4-0.3,5.6c0.5-0.2,0.9-0.4,1.2-0.7c0.4-0.3,0.8-0.7,1.2-1.1c0.3-0.3,0.6-0.7,0.8-1.2l-0.8,0c-0.9,0-1.3-0.3-1.3-1l0-2.2
		c0-0.6,0.4-1,1.3-0.9l6.7,0c-0.1-0.1-0.1-0.2-0.1-0.3l0-4.2L113.9,305.5z M114.8,302.4c-0.6,0-0.9,0.4-0.9,1.1l0,0.5l17.7,0
		c0.3,0,0.4-0.2,0.4-0.6l0-0.3c0-0.4-0.1-0.7-0.4-0.7l-6.5,0L114.8,302.4z M121.4,308.7c0,0.4-0.2,0.5-0.5,0.5l-5.7,0
		c-0.4,0-0.5-0.2-0.5-0.5c0-0.4,0.2-0.5,0.5-0.5l5.7,0C121.2,308.1,121.4,308.3,121.4,308.7z M121.6,306.8c0,0.4-0.2,0.5-0.5,0.5
		l-5.9,0c-0.4,0-0.5-0.2-0.5-0.5c0-0.4,0.2-0.5,0.5-0.5l5.9,0C121.4,306.2,121.6,306.4,121.6,306.8z M120.3,311.1l-3.6,0
		c-0.1,0-0.1,0.2-0.1,0.5v1c0,0.4,0,0.5,0.1,0.5l3.6,0L120.3,311.1z M121.6,318.9l-4.4,0c-0.1,0-0.1,0.1-0.1,0.4l0,0.3
		c0,0.4,0,0.5,0.1,0.5l4.4,0L121.6,318.9z M126.1,311.1l-4.3,0l0,2l4.3,0L126.1,311.1z M125.8,322.2c-0.2-0.2-0.2-0.4-0.2-0.5
		c0-0.1,0-0.2,0.1-0.3l-2.4,0v1.2c0.9-0.1,1.8-0.1,2.7-0.2C125.9,322.3,125.9,322.3,125.8,322.2z M128.5,319.7l0-0.3
		c0-0.3-0.1-0.4-0.2-0.4l-5,0l0,1.3l5,0C128.4,320.2,128.5,320.1,128.5,319.7z M133.7,306.8c0,0.4-0.2,0.5-0.5,0.5l-6.6,0
		c-0.4,0-0.5-0.2-0.5-0.5c0-0.4,0.2-0.5,0.5-0.5l6.6,0C133.5,306.2,133.7,306.4,133.7,306.8z M133.7,308.7c0,0.4-0.2,0.5-0.5,0.5
		l-6.5,0c-0.4,0-0.5-0.2-0.5-0.5c0-0.4,0.2-0.5,0.5-0.5l6.5,0C133.5,308.1,133.7,308.3,133.7,308.7z M131.9,312.6l0-0.9
		c0-0.3-0.1-0.5-0.2-0.5l-4,0l0,2l4,0C131.9,313.1,131.9,313,131.9,312.6z"/>
	<path class="st4" d="M148.2,312.4c0,0.4-0.2,0.7-0.6,1c-0.6,0.4-1.3,0.8-2.1,1.1c0.2,1.2,0.4,2.4,0.4,3.6c0,1.2-0.2,2.4-0.6,3.5
		c-0.4,1-0.9,1.8-1.5,2.2c-0.6,0.4-1.3,0.7-2.1,0.7c-0.7,0-1.4-0.1-2.1-0.2c-0.5-0.2-0.9-0.6-0.9-1c0-0.7,0.3-1,0.8-1.1
		c1.1,0.2,1.7,0.3,2,0.3c0.4,0,0.7-0.2,1.1-0.5c0.4-0.3,0.7-0.9,1-1.6c0.3-0.7,0.4-1.4,0.4-2.3c0-1-0.1-2-0.3-2.9
		c-0.1,0-0.1,0-0.1,0c-1.3,0.5-2.8,1-4.6,1.4c-0.6,0-1-0.4-1-1c0-0.6,0.2-1,0.8-1.1c1.6-0.3,2.9-0.7,3.8-1c0.2-0.1,0.4-0.1,0.6-0.2
		c0-0.1,0-0.1,0-0.2c-0.4-1.3-0.9-2.5-1.7-3.5c-0.6-0.9-1.3-1.6-2.1-2.2c-0.2-0.2-0.4-0.4-0.4-0.6c0-0.7,0.3-1,1-1.1
		c0.2,0,0.5,0.2,0.9,0.5c0.1,0.1,0.2,0.2,0.2,0.2c0,0,0.1,0,0.1-0.1c0.7-0.5,1.2-0.9,1.5-1.2c0.5-0.4,0.9-0.9,1.2-1.5
		c0.3-0.4,0.4-0.6,0.4-0.8c0-0.1-0.1-0.2-0.3-0.2l-5.2,0.1c-0.7,0-1-0.3-1-1c0-0.6,0.3-1,0.9-1l6.8-0.2c0.8,0,1.3,0.4,1.3,1.1
		c0,0.4-0.1,0.8-0.4,1.3c-0.4,0.8-1,1.7-1.8,2.6c-0.7,0.9-1.5,1.6-2.3,2.2c0.2,0.2,0.3,0.4,0.4,0.6c0.8,1.1,1.4,2.4,1.9,3.8
		c0,0.1,0.1,0.2,0.1,0.4c0.6-0.3,1.2-0.6,1.7-0.9c0.2-0.1,0.4-0.1,0.5-0.1C147.9,311.7,148.2,311.9,148.2,312.4z M161.8,309.3
		c0.2,0.2,0.3,0.3,0.3,0.5c0,0.2,0,0.5-0.1,0.8c-0.6,2.1-1.3,3.9-2.1,5.2c-0.6,0.9-1.2,1.8-1.8,2.5c0.7,0.7,1.3,1.3,1.7,1.7
		c0.6,0.6,1.6,1.4,3,2.3c0.3,0.2,0.4,0.6,0.4,1c-0.1,0.5-0.4,0.8-0.8,0.9c-0.4,0-0.7-0.2-1.1-0.5c-0.6-0.4-1.3-0.9-2-1.5
		c-0.8-0.6-1.6-1.5-2.5-2.5c-0.9,0.8-1.8,1.5-2.7,2.2c-1.3,0.9-3,1.7-5,2.5c-0.4,0.1-0.6,0.2-0.7,0.2c-0.3,0-0.5-0.1-0.8-0.3
		c-0.2-0.2-0.3-0.4-0.3-0.7c0-0.5,0.1-0.8,0.5-1c2-0.7,3.6-1.5,4.9-2.3c1.1-0.8,2.2-1.6,3.1-2.4c0.9-0.9,1.8-2,2.6-3.3
		c0.8-1.3,1.5-2.9,2.1-4.9c0.1-0.4,0.4-0.6,0.8-0.6C161.4,309.1,161.6,309.1,161.8,309.3z M156.2,300.5l0,1.5l5.7-0.1
		c0.5,0,0.8,0.3,0.9,0.8c0,0.7-0.3,1-0.8,1l-7.5,0.2c-0.1,0.2-0.1,0.3-0.2,0.4c-0.6,1.3-1.5,2.8-2.7,4.5c-0.1,0.1-0.1,0.1-0.1,0.1
		c0.9,0.7,1.8,1.5,2.6,2.4c0,0.1,0.1,0.1,0.1,0.1c0.4-0.5,0.8-0.9,1.1-1.4c0.9-1.3,1.8-2.8,2.4-4.6c0.1-0.4,0.4-0.6,0.9-0.6
		c0.2,0,0.4,0.1,0.6,0.2c0.2,0.2,0.3,0.3,0.3,0.6c0,0.1,0,0.3-0.1,0.5c-0.7,1.9-1.5,3.5-2.5,4.9c-1,1.5-2.2,2.8-3.6,4.1
		c-1.2,1.1-2.5,2-4.1,2.8c-0.2,0.2-0.4,0.2-0.6,0.2c-0.3,0-0.5-0.1-0.7-0.3c-0.2-0.2-0.3-0.5-0.3-0.8c0-0.2,0.1-0.4,0.3-0.6
		c1.5-0.8,2.8-1.7,3.9-2.7c0.4-0.4,0.8-0.7,1.2-1.1c-0.1-0.1-0.2-0.1-0.3-0.2c-1-1-1.9-1.7-2.6-2.3c-0.6-0.5-1.2-0.9-2-1.4
		c-0.2-0.2-0.3-0.5-0.3-0.8c0-0.6,0.3-1,0.9-1c0.2,0,0.4,0.1,0.6,0.2c0.2,0.2,0.5,0.4,0.7,0.5c1-1.5,1.8-2.8,2.4-4l-3.8,0.1
		c-0.6,0-0.8-0.3-0.9-0.9c0-0.6,0.3-0.9,0.8-0.9l5.6-0.1l0-1.5c0-0.6,0.3-1,0.9-1C155.8,299.6,156.2,299.9,156.2,300.5z"/>
	<path class="st4" d="M190.7,311.3c0,0.7-0.3,1.1-0.9,1.1l-8.1,0.4c0.4,1.3,0.7,2.7,0.7,4c0.1,1.1-0.2,2.3-0.8,3.4
		c-0.5,1-1.2,1.7-2.1,2.2c-0.8,0.5-1.8,0.7-2.9,0.8c-1.4,0.1-3-0.2-4.8-0.8c-0.6-0.2-0.9-0.5-1-1c0-0.7,0.3-1.1,0.9-1.2
		c2.5,0.7,4.1,1,4.7,0.9c0.6,0,1.2-0.2,1.8-0.5c0.6-0.3,1.2-0.8,1.5-1.6c0.4-0.6,0.6-1.4,0.5-2.2c-0.1-1.5-0.3-2.8-0.7-4l0,0
		l-13.4,0.6c-0.7,0-1-0.3-1-1c0-0.6,0.3-1,0.9-1l12.4-0.6c-0.2-0.3-0.4-0.5-0.6-0.8c-0.6-0.7-1.3-1.3-2.1-1.7
		c-0.3-0.2-0.4-0.3-0.4-0.5c0-0.7,0.4-1,1.1-1.1c0.2,0,0.5,0.1,0.8,0.3c0.1-0.1,0.1-0.1,0.2-0.1c1.4-0.7,2.4-1.3,3.1-1.9
		c1-0.7,1.8-1.5,2.6-2.3c0.6-0.6,0.9-1,0.9-1.2c0-0.1-0.1-0.2-0.3-0.2l-14.6,0.7c-0.6,0-0.9-0.3-0.9-0.9c0-0.6,0.2-0.9,0.8-0.9
		l16.3-0.8c1,0,1.5,0.3,1.5,1c0,0.5-0.2,1-0.6,1.6c-0.7,1-1.7,2.1-3,3.3c-1.4,1.2-2.8,2.2-4.3,3c0.2,0.2,0.3,0.4,0.5,0.5
		c0.5,0.6,1,1.2,1.3,1.8l8.8-0.4C190.3,310.4,190.7,310.7,190.7,311.3z"/>
	<path class="st4" d="M199.2,297.6c0.2,0.2,0.3,0.4,0.3,0.7c0,0.3,0,0.5-0.2,0.7c-0.3,0.7-0.5,1.4-0.9,2c-0.1,0.3-0.3,0.5-0.4,0.7
		l3.5-0.3c1.2-0.1,1.8,0.4,1.9,1.5l1.2,16.3c0.1,1.2-0.5,1.8-1.7,1.9l-6.5,0.5c-1.2,0.1-1.8-0.5-1.9-1.7l-1.2-16.3
		c-0.1-1.1,0.5-1.7,1.7-1.8l0.7-0.1c0.3-0.4,0.5-0.9,0.7-1.3c0.4-0.9,0.8-1.8,1.2-2.8c0.2-0.3,0.4-0.4,0.8-0.5
		C198.8,297.4,199,297.5,199.2,297.6z M202.1,310l-0.4-5.9c0-0.5-0.3-0.7-0.8-0.7l-4.7,0.4c-0.5,0-0.7,0.3-0.7,0.8l0.4,5.9
		L202.1,310z M202.8,318.7l-0.5-6.9l-6.3,0.5l0.5,6.9c0,0.6,0.3,0.8,0.8,0.8l4.7-0.4C202.6,319.5,202.8,319.2,202.8,318.7z
		 M208.1,297.6c0,1,0,1.9-0.1,2.6l7-0.5c1.2-0.1,1.9,0.6,2.1,2c0.3,4.2,0.5,8,0.5,11.5c0,3.1-0.4,5.1-1.1,6.2c-0.8,1-2,1.6-3.6,1.8
		c-1.5,0.1-3.1-0.2-5-0.8c-0.5-0.2-0.8-0.5-0.8-0.9c-0.1-0.8,0.3-1.2,1-1.2c2,0.7,3.5,1,4.5,0.9c1.2-0.1,2-0.6,2.4-1.5
		c0.4-0.9,0.7-2.6,0.6-5.1c0-2.8-0.2-6.1-0.5-9.9c-0.1-0.7-0.4-1-1-1l-6.3,0.5c-0.3,1.5-0.7,2.8-1.3,3.8c-0.3,0.4-0.6,0.6-0.9,0.6
		c-0.8,0.1-1.2-0.3-1.2-1c0-0.1,0.1-0.3,0.3-0.5c0.6-1.1,1-2.3,1.2-3.4c0.2-1,0.3-2.3,0.3-3.8c0-0.5,0.2-0.9,0.9-0.9
		C207.7,296.8,208.1,297.1,208.1,297.6z M209.4,306.3c0.9,1.9,1.7,4,2.4,6.3c0.1,0.3,0.1,0.5,0.2,0.8c0,0.6-0.3,1-1.1,1
		c-0.4,0-0.7-0.2-0.9-0.7c-0.7-2.6-1.3-4.7-2-6.3c-0.2-0.2-0.2-0.4-0.2-0.6c0-0.5,0.2-0.8,0.9-0.8
		C208.9,305.9,209.1,306.1,209.4,306.3z"/>
	<path class="st4" d="M244.2,300.9c0.1,0.7-0.2,1.1-0.8,1.2l-9.7,1c0.2,0.6,0.4,1.3,0.7,2c0.6,1.5,1.5,2.9,2.7,4.2
		c1.1,1.3,2.5,2.5,4.2,3.7c1.1,0.9,2.7,1.8,4.7,2.9c0.3,0.2,0.5,0.5,0.5,0.8c0,0.7-0.3,1-0.9,1.2c-0.3,0-0.6-0.1-1-0.3
		c-2.2-1.2-4-2.4-5.6-3.7c-1.5-1.3-2.7-2.5-3.6-3.6c-1.1-1.3-1.9-2.6-2.5-3.9c-0.4,1.5-0.9,2.9-1.6,4.2c-0.7,1.4-1.6,2.9-2.8,4.4
		c-1.4,1.8-2.9,3.4-4.7,4.9c-0.3,0.2-0.5,0.4-0.7,0.4c-0.8,0-1.2-0.4-1.3-1.1c0-0.2,0.2-0.5,0.6-0.8c1.5-1.3,2.9-2.7,4.2-4.3
		c1.4-1.6,2.5-3.2,3.3-4.7c0.7-1.4,1.1-2.8,1.4-4.1c0.1-0.7,0.2-1.3,0.2-1.9l-9.6,1c-0.6,0.1-1-0.2-1.1-1c-0.1-0.6,0.2-1,0.8-1
		l9.7-1l-0.6-5.3c-0.1-0.7,0.2-1.1,1-1.2c0.7-0.1,1.1,0.2,1.2,0.9l0.6,5.3l9.8-1C243.8,300,244.1,300.3,244.2,300.9z"/>
	<path class="st4" d="M249.2,300.6c0.9,0.6,1.9,1.4,2.8,2.3c0.1,0.3,0.3,0.5,0.3,0.6c0.1,0.6-0.2,1-0.9,1.1c-0.2,0-0.4,0-0.5-0.1
		c-0.9-0.8-1.9-1.6-2.9-2.4c-0.2-0.2-0.3-0.4-0.3-0.5c-0.1-0.7,0.2-1.1,0.9-1.2C248.7,300.3,249,300.4,249.2,300.6z M249.5,293.6
		c0.9,0.6,1.7,1.4,2.6,2.2c0.2,0.2,0.3,0.5,0.3,0.6c0.1,0.6-0.2,1-0.9,1.1c-0.2,0-0.4,0-0.5-0.1c-0.9-0.8-1.8-1.6-2.7-2.3
		c-0.2-0.2-0.3-0.4-0.3-0.5c-0.1-0.7,0.2-1.1,0.9-1.2C249,293.3,249.2,293.4,249.5,293.6z M253.1,307.5c0,1.5,0,2.9-0.2,4.3
		c-0.2,1.5-0.5,2.9-0.9,4.3c-0.2,0.4-0.4,0.7-0.9,0.8c-0.6,0.1-1-0.2-1.1-0.7c0-0.1,0-0.2,0-0.4c0.5-1.8,0.8-3.1,0.9-3.9
		c0.2-1.3,0.3-2.8,0.3-4.5c0-0.4,0.2-0.7,0.6-0.7C252.6,306.5,253,306.8,253.1,307.5z M256.9,291.4c0.2,0.1,0.4,0.3,0.4,0.6
		c0,0.2,0,0.4,0,0.6c0,0.2-0.1,0.4-0.1,0.6l12.7-1.8c0.6-0.1,0.9,0.2,1,0.7c0.1,0.6-0.2,1-0.7,1.1l-13.4,1.9
		c-0.1,0.2-0.1,0.3-0.2,0.5c-0.3,0.9-0.7,1.7-1.2,2.4c-0.4,0.7-0.9,1.3-1.4,1.8c-0.2,0.2-0.4,0.2-0.6,0.3c-0.3,0-0.5,0-0.7-0.2
		c-0.2-0.2-0.3-0.4-0.4-0.7c0-0.2,0-0.4,0.2-0.7c0.5-0.5,0.9-1,1.2-1.6c0.4-0.7,0.7-1.4,1-2.2c0.3-0.7,0.4-1.6,0.6-2.6
		c0.1-0.4,0.4-0.7,0.9-0.8C256.5,291.3,256.7,291.3,256.9,291.4z M268.5,296c1-0.1,1.6,0.3,1.7,1.3c0.1,0.5,0.1,2.1,0.2,4.7l0,0.1
		l1.6-0.2c0.6-0.1,1,0.2,1.1,0.8c0.1,0.6-0.2,1-0.8,1.1l-1.8,0.3c0,1.8,0,3.5,0,5l2-0.3c0.6-0.1,1,0.2,1.1,0.7
		c0.1,0.6-0.2,1-0.8,1.1l-2.3,0.3c-0.1,1.7-0.3,2.7-0.5,3.1c-0.4,0.5-0.9,0.8-1.6,0.9c-1.7,0.2-3.3,0.3-4.7,0.1
		c-0.6-0.1-0.9-0.4-1-0.9c-0.1-0.6,0.2-1,0.8-1.1c2.1,0.1,3.6,0.1,4.4,0c0.4-0.1,0.6-0.5,0.7-1.2c0-0.2,0-0.4,0.1-0.7l-11.7,1.7
		c-0.9,0.1-1.4-0.2-1.5-1c0-0.3,0-0.6,0.1-1c0.4-2,0.7-3.6,0.8-4.8l-1.8,0.3c-0.6,0.1-1-0.2-1.1-0.8c-0.1-0.6,0.2-1,0.8-1.1l2.3-0.3
		c0.1-1.3,0.1-2.9,0.1-4.7c0-1.1,0.5-1.7,1.5-1.8L268.5,296z M268.6,305.1c0-0.3,0-0.6,0-0.9l-10.6,1.5c-0.2,1.6-0.3,3.2-0.6,4.8
		c0,0.2,0.2,0.3,0.5,0.3l10.7-1.5C268.6,308,268.6,306.6,268.6,305.1z M268.5,302.3c-0.1-1.4-0.1-2.7-0.2-3.9c0-0.3-0.3-0.5-0.7-0.4
		l-8.5,1.2c-0.5,0.1-0.8,0.4-0.7,0.8c0,1.3-0.1,2.5-0.2,3.8L268.5,302.3z M262.4,305.9c0.4,0.2,0.7,0.4,1.1,0.6
		c0.5,0.3,0.9,0.7,1.4,1.1c0.3,0.2,0.4,0.4,0.4,0.5c0.1,0.6-0.2,0.9-0.7,1c-0.3,0-0.6,0-0.9-0.2c-0.5-0.4-0.9-0.6-1.3-0.9
		c-0.3-0.2-0.6-0.4-1-0.5c-0.2-0.2-0.4-0.4-0.4-0.7c-0.1-0.6,0.1-0.9,0.7-1C261.9,305.8,262.2,305.8,262.4,305.9z M262.6,299.5
		c0.4,0.2,0.8,0.3,1.1,0.4c0.5,0.2,0.9,0.5,1.4,0.8c0.3,0.2,0.4,0.4,0.4,0.5c0.1,0.6-0.2,0.9-0.7,1c-0.3,0-0.6,0-0.9-0.2
		c-0.5-0.3-0.9-0.4-1.3-0.6c-0.3-0.1-0.6-0.2-1-0.4c-0.3-0.2-0.4-0.4-0.4-0.7c-0.1-0.5,0.1-0.9,0.7-1
		C262.1,299.4,262.3,299.4,262.6,299.5z"/>
	<path class="st4" d="M280.7,289.1c0.1,0.6-0.1,1-0.8,1.2c-0.9,0.5-1.8,0.8-2.5,0.9c-0.4,0.1-0.6,0.4-0.5,0.8l0.5,2.9l3.1-0.6
		c0.6-0.1,0.9,0.1,1,0.7c0.1,0.6-0.1,0.9-0.7,1l-3.1,0.6l0.7,3.5l3.1-0.6c0.6-0.1,0.9,0.1,1,0.7c0.1,0.6-0.1,0.9-0.7,1l-3.1,0.6
		l0.6,3.3l5.6-1.1l-1-5.4c-0.1-0.5,0.1-0.9,0.7-1c0.6-0.1,1,0.1,1.1,0.6l1,5.4l2.6-0.5l-1.3-7c-0.1-0.5-0.4-0.7-0.9-0.6l-2.2,0.4
		c-1.1,0.2-1.7-0.2-1.8-1.1l-1.2-6.4c-0.1-0.5,0.1-0.9,0.8-1c0.6-0.1,1,0.1,1.1,0.6l0.3,1.4l4.2-0.8c0.5-0.1,0.8,0.1,0.9,0.6
		c0.1,0.6-0.1,0.9-0.6,1l-4.2,0.8l0.5,2.5c0.1,0.6,0.3,0.8,0.8,0.7l2-0.4c1.2-0.2,1.9,0.2,2.1,1.2l1.4,7.7l5.5-1l-0.6-3.3l-3.7,0.7
		c-0.6,0.1-0.9-0.1-1-0.7c-0.1-0.5,0.1-0.9,0.7-1l3.7-0.7l-0.7-3.5l-3.7,0.7c-0.6,0.1-0.9-0.1-1-0.7c-0.1-0.5,0.1-0.9,0.7-1l3.7-0.7
		l-0.5-2.8c-0.1-0.5-0.4-0.7-1-0.6l-2.8,0.5c-0.6,0.1-0.9-0.1-1-0.8c-0.1-0.6,0.1-0.9,0.7-1l3.5-0.7c1.2-0.2,2,0.3,2.2,1.4l2.6,13.7
		l0.8-0.2c0.6-0.1,1,0.1,1.1,0.8c0.1,0.6-0.1,1-0.8,1.1l-22.4,4.2c-0.6,0.1-1-0.1-1.1-0.8c-0.1-0.6,0.1-1,0.8-1.1l0.7-0.1l-2.5-13.6
		c-0.1-0.6-0.1-1.2,0.2-1.6c0.2-0.3,0.6-0.5,1.3-0.7c1-0.2,2-0.7,3-1.3C280.2,288.3,280.6,288.5,280.7,289.1z M285.6,307.7
		c0.1,0.3,0,0.7-0.2,0.9c-1.5,1.3-3.8,2.7-6.7,4.1c-0.3,0.1-0.6,0.2-0.7,0.3c-0.8,0.1-1.2-0.2-1.4-0.9c-0.1-0.4,0-0.7,0.4-0.9
		c2.8-1.2,5.1-2.5,6.9-3.9c0.2-0.2,0.4-0.3,0.6-0.3C285.2,306.9,285.5,307.1,285.6,307.7z M293.1,305.7c2.7,0.7,5.3,1.2,7.8,1.3
		c0.4,0.1,0.7,0.4,0.8,0.7c0.1,0.7-0.2,1.1-0.8,1.2c-0.4,0.1-1.9-0.1-4.4-0.5c-1.4-0.3-2.8-0.6-4.1-1c-0.3-0.3-0.5-0.5-0.6-0.8
		c-0.1-0.6,0.1-1,0.8-1.1C292.8,305.6,292.9,305.6,293.1,305.7z"/>
	<path class="st4" d="M303.1,289l3.6,15.1c0.1,0.4,0.3,0.6,0.6,0.5l7.5-1.8l-4.7-19.8c-0.2-0.7,0.1-1.1,0.8-1.3
		c0.7-0.2,1.1,0.1,1.3,0.8l4.7,19.8l7.5-1.8c0.3-0.1,0.5-0.3,0.4-0.7l-3.7-15.3c-0.2-0.7,0.1-1.1,0.8-1.3c0.7-0.2,1.1,0.1,1.3,0.8
		l3.8,16c0.3,1.2-0.2,1.9-1.4,2.2l-18.6,4.4c-1.2,0.3-2-0.2-2.3-1.3l-3.8-15.9c-0.2-0.7,0.1-1.1,0.8-1.3
		C302.5,288,303,288.3,303.1,289z"/>
	<path class="st4" d="M337.5,280.1c0.2,0.6,0,1-0.5,1.2l-3.1,1l0.6,2l5.1,3.7c0.3,0.2,0.5,0.5,0.6,0.7c0.2,0.7,0,1.1-0.7,1.3
		c-0.4,0.1-0.7,0-1-0.3l-3.1-2.7l3.6,11.6c0.2,0.6,0,1-0.6,1.2c-0.6,0.2-1,0-1.2-0.7l-3.7-11.9c0,0.1,0,0.3,0,0.4
		c-0.2,1.8-0.3,3.3-0.6,4.4c-0.2,1.5-0.5,2.6-0.8,3.3c-0.1,0.5-0.3,0.8-0.6,0.9c-0.6,0.2-1,0-1.2-0.7c-0.1-0.2-0.1-0.5,0-0.8
		c0.8-3,1.4-5.4,1.5-7.2c0.2-1.4,0.2-2.9,0.2-4.7l-3.5,1.1c-0.5,0.2-0.9,0-1.1-0.7c-0.2-0.5,0-0.9,0.5-1.1l3.7-1.1l-1.1-3.4
		c-0.2-0.6,0-1,0.6-1.2c0.6-0.2,1,0,1.2,0.6l1.1,3.4l3.1-1C337,279.3,337.3,279.5,337.5,280.1z M349.5,276.3c0.2,0.6,0,1-0.5,1.2
		l-4.5,1.4c1.7,2.1,3.1,3.7,4.1,4.7c1.1,1.2,2.7,2.8,4.8,4.5c0.3,0.2,0.5,0.5,0.6,0.9c0,0.6-0.3,1-0.7,1.2c-0.3,0.1-0.6,0.1-0.9-0.1
		c-1-0.8-2.1-2-3.3-3.4c-1-1.1-2.2-2.5-3.5-4.2l3.9,12.8c0.2,0.6,0,1-0.7,1.2c-0.6,0.2-1,0-1.2-0.7l-3.6-11.6c0,0.1,0,0.2,0,0.3
		c-0.1,2-0.3,3.6-0.6,4.8c-0.2,1.6-0.5,2.8-0.8,3.6c-0.1,0.5-0.3,0.8-0.6,0.9c-0.6,0.2-1,0-1.2-0.6c-0.1-0.2-0.1-0.5,0-0.8
		c0.9-3.2,1.4-5.7,1.6-7.7c0.2-1.5,0.2-3.2,0.1-5.2l-3.5,1.1c-0.5,0.2-0.9,0-1.1-0.7c-0.2-0.5,0-0.9,0.5-1.1l3.6-1.1l-1.1-3.4
		c-0.2-0.6,0-1,0.6-1.2c0.7-0.2,1.1,0,1.3,0.6l1.1,3.4l4.6-1.4C349,275.5,349.4,275.7,349.5,276.3z"/>
	<path class="st4" d="M365.8,280.5c-0.5,1-1.2,1.7-2.3,2.1c-1.1,0.4-2.1,0.4-3.1-0.1c-1-0.5-1.7-1.2-2.1-2.3c-0.4-1-0.4-2.1,0.1-3.1
		c0.5-1,1.2-1.7,2.3-2.1c1-0.4,2.1-0.4,3.1,0.1c1,0.5,1.7,1.2,2.1,2.3C366.3,278.5,366.3,279.5,365.8,280.5z M363.2,276.4
		c-0.7-0.3-1.4-0.3-2,0c-0.7,0.3-1.2,0.7-1.5,1.4c-0.3,0.7-0.3,1.4,0,2c0.3,0.7,0.7,1.2,1.4,1.5c0.7,0.3,1.3,0.3,2,0
		c0.7-0.3,1.2-0.7,1.5-1.4c0.3-0.7,0.3-1.3,0-2C364.3,277.2,363.9,276.7,363.2,276.4z"/>
</g>
</svg>
