<svg id="Layer_1" data-name="Layer 1" xmlns="http://www.w3.org/2000/svg" viewBox="0 0 75 73"><defs><style>.cls-1{fill:#fcd36c;}.cls-2{fill:none;stroke:#373737;stroke-linecap:round;stroke-linejoin:round;stroke-width:2px;}.cls-3{fill:#4a4a4a;}</style></defs><title>東海岸部落旅行網站_首頁_191207</title><circle class="cls-1" cx="38" cy="36.33" r="35.63"/><path class="cls-2" d="M45.22,30.39h0l-6.67-5.61a.5.5,0,0,0-.33-.12.51.51,0,0,0-.33.12l-6.67,5.61m14-4.72h0l-6.67-5.61a.5.5,0,0,0-.33-.12.51.51,0,0,0-.33.12l-6.67,5.61"/><path class="cls-3" d="M31.65,38.93v1.6H27.9v9.83H26V40.53H22.29v-1.6Z"/><path class="cls-3" d="M42.63,40.4a6.15,6.15,0,0,1,1.44,4.26,6.11,6.11,0,0,1-1.44,4.24,5.27,5.27,0,0,1-4.13,1.68,5.24,5.24,0,0,1-4.13-1.7,6.14,6.14,0,0,1-1.42-4.23,6.16,6.16,0,0,1,1.42-4.24,5.15,5.15,0,0,1,4.13-1.71A5.24,5.24,0,0,1,42.63,40.4Zm-6.88,1.15a4.76,4.76,0,0,0-.93,3.11,4.74,4.74,0,0,0,.93,3.09,3.37,3.37,0,0,0,2.75,1.18,3.4,3.4,0,0,0,2.74-1.14,4.77,4.77,0,0,0,.94-3.14,4.89,4.89,0,0,0-.94-3.17,3.35,3.35,0,0,0-2.74-1.14A3.36,3.36,0,0,0,35.74,41.55Z"/><path class="cls-3" d="M51.46,38.93c2.75,0,4.15,1.17,4.15,3.5S54.21,46,51.42,46H48.59v4.39H46.72V38.93Zm-2.87,5.44h2.72a3.05,3.05,0,0,0,1.83-.45,1.79,1.79,0,0,0,.58-1.49A1.71,1.71,0,0,0,53.12,41a2.93,2.93,0,0,0-1.81-.45H48.59Z"/></svg>